<mxfile host="drawio-plugin" modified="2022-07-15T16:52:39.250Z" agent="5.0 (X11; Linux x86_64) AppleWebKit/537.36 (KHTML, like Gecko) Chrome/97.0.4692.45 Safari/537.36" version="15.5.4" etag="mUhNe_tMpqIbZJR6_uP8" type="embed" pages="5"><diagram id="ZYMeJUBnfRYUawSaobsd" name="Home"><mxGraphModel dx="3124" dy="1205" grid="1" gridSize="10" guides="1" tooltips="1" connect="1" arrows="1" fold="1" page="1" pageScale="1" pageWidth="827" pageHeight="1169" background="#283618" math="0" shadow="0"><root><mxCell id="0"/><mxCell id="1" parent="0"/><mxCell id="X0adh9UWfzy7p51SdVp_-1" value="" style="edgeStyle=orthogonalEdgeStyle;rounded=0;orthogonalLoop=1;jettySize=auto;html=1;fontSize=15;labelBackgroundColor=#283618;strokeColor=#DDA15E;fontColor=#FEFAE0;sketch=1;shadow=1;" parent="1" source="X0adh9UWfzy7p51SdVp_-4" target="X0adh9UWfzy7p51SdVp_-6" edge="1"><mxGeometry relative="1" as="geometry"/></mxCell><mxCell id="X0adh9UWfzy7p51SdVp_-2" value="" style="edgeStyle=orthogonalEdgeStyle;rounded=0;orthogonalLoop=1;jettySize=auto;html=1;fontSize=15;labelBackgroundColor=#283618;strokeColor=#DDA15E;fontColor=#FEFAE0;sketch=1;shadow=1;" parent="1" source="X0adh9UWfzy7p51SdVp_-4" target="X0adh9UWfzy7p51SdVp_-8" edge="1"><mxGeometry relative="1" as="geometry"/></mxCell><mxCell id="X0adh9UWfzy7p51SdVp_-3" value="" style="edgeStyle=orthogonalEdgeStyle;rounded=0;orthogonalLoop=1;jettySize=auto;html=1;fontSize=15;labelBackgroundColor=#283618;strokeColor=#DDA15E;fontColor=#FEFAE0;sketch=1;shadow=1;" parent="1" source="X0adh9UWfzy7p51SdVp_-4" target="X0adh9UWfzy7p51SdVp_-11" edge="1"><mxGeometry relative="1" as="geometry"/></mxCell><mxCell id="X0adh9UWfzy7p51SdVp_-4" value="Buildor&amp;nbsp;" style="rounded=1;whiteSpace=wrap;html=1;fontSize=15;fillColor=#BC6C25;strokeColor=#DDA15E;fontColor=#FEFAE0;sketch=1;shadow=1;" parent="1" vertex="1"><mxGeometry x="310" y="200" width="120" height="60" as="geometry"/></mxCell><mxCell id="X0adh9UWfzy7p51SdVp_-5" value="" style="edgeStyle=orthogonalEdgeStyle;rounded=0;orthogonalLoop=1;jettySize=auto;html=1;fontSize=15;labelBackgroundColor=#283618;strokeColor=#DDA15E;fontColor=#FEFAE0;sketch=1;shadow=1;" parent="1" source="X0adh9UWfzy7p51SdVp_-6" target="X0adh9UWfzy7p51SdVp_-32" edge="1"><mxGeometry relative="1" as="geometry"/></mxCell><mxCell id="X0adh9UWfzy7p51SdVp_-6" value="Admin&amp;nbsp;" style="rounded=1;whiteSpace=wrap;html=1;fontSize=15;fillColor=#BC6C25;strokeColor=#DDA15E;fontColor=#FEFAE0;sketch=1;shadow=1;" parent="1" vertex="1"><mxGeometry x="-270" y="330" width="120" height="60" as="geometry"/></mxCell><mxCell id="X0adh9UWfzy7p51SdVp_-7" value="" style="edgeStyle=orthogonalEdgeStyle;rounded=0;orthogonalLoop=1;jettySize=auto;html=1;fontSize=15;labelBackgroundColor=#283618;strokeColor=#DDA15E;fontColor=#FEFAE0;sketch=1;shadow=1;" parent="1" source="X0adh9UWfzy7p51SdVp_-8" target="X0adh9UWfzy7p51SdVp_-27" edge="1"><mxGeometry relative="1" as="geometry"/></mxCell><mxCell id="X0adh9UWfzy7p51SdVp_-8" value="Man-Power" style="whiteSpace=wrap;html=1;fontSize=15;rounded=1;fillColor=#BC6C25;strokeColor=#DDA15E;fontColor=#FEFAE0;sketch=1;shadow=1;" parent="1" vertex="1"><mxGeometry x="820" y="350" width="120" height="60" as="geometry"/></mxCell><mxCell id="X0adh9UWfzy7p51SdVp_-9" value="" style="edgeStyle=orthogonalEdgeStyle;rounded=0;orthogonalLoop=1;jettySize=auto;html=1;fontSize=15;labelBackgroundColor=#283618;strokeColor=#DDA15E;fontColor=#FEFAE0;sketch=1;shadow=1;" parent="1" source="X0adh9UWfzy7p51SdVp_-11" target="X0adh9UWfzy7p51SdVp_-13" edge="1"><mxGeometry relative="1" as="geometry"/></mxCell><mxCell id="X0adh9UWfzy7p51SdVp_-10" value="" style="edgeStyle=orthogonalEdgeStyle;rounded=0;orthogonalLoop=1;jettySize=auto;html=1;fontSize=15;labelBackgroundColor=#283618;strokeColor=#DDA15E;fontColor=#FEFAE0;sketch=1;shadow=1;" parent="1" source="X0adh9UWfzy7p51SdVp_-11" target="X0adh9UWfzy7p51SdVp_-15" edge="1"><mxGeometry relative="1" as="geometry"/></mxCell><mxCell id="X0adh9UWfzy7p51SdVp_-11" value="Users&amp;nbsp;" style="rounded=1;whiteSpace=wrap;html=1;fontSize=15;fillColor=#BC6C25;strokeColor=#DDA15E;fontColor=#FEFAE0;sketch=1;shadow=1;" parent="1" vertex="1"><mxGeometry x="310" y="340" width="120" height="60" as="geometry"/></mxCell><mxCell id="X0adh9UWfzy7p51SdVp_-12" value="" style="edgeStyle=orthogonalEdgeStyle;rounded=0;orthogonalLoop=1;jettySize=auto;html=1;fontSize=15;labelBackgroundColor=#283618;strokeColor=#DDA15E;fontColor=#FEFAE0;sketch=1;shadow=1;" parent="1" source="X0adh9UWfzy7p51SdVp_-13" target="X0adh9UWfzy7p51SdVp_-18" edge="1"><mxGeometry relative="1" as="geometry"/></mxCell><mxCell id="X0adh9UWfzy7p51SdVp_-13" value="Build Phase&amp;nbsp;&amp;nbsp;" style="rounded=1;whiteSpace=wrap;html=1;fontSize=15;fillColor=#BC6C25;strokeColor=#DDA15E;fontColor=#FEFAE0;sketch=1;shadow=1;" parent="1" vertex="1"><mxGeometry x="150" y="460" width="120" height="60" as="geometry"/></mxCell><mxCell id="X0adh9UWfzy7p51SdVp_-14" value="" style="edgeStyle=orthogonalEdgeStyle;rounded=0;orthogonalLoop=1;jettySize=auto;html=1;fontSize=15;labelBackgroundColor=#283618;strokeColor=#DDA15E;fontColor=#FEFAE0;sketch=1;shadow=1;" parent="1" source="X0adh9UWfzy7p51SdVp_-15" target="X0adh9UWfzy7p51SdVp_-24" edge="1"><mxGeometry relative="1" as="geometry"/></mxCell><mxCell id="X0adh9UWfzy7p51SdVp_-15" value="Renovate Phase&amp;nbsp;" style="whiteSpace=wrap;html=1;fontSize=15;rounded=1;fillColor=#BC6C25;strokeColor=#DDA15E;fontColor=#FEFAE0;sketch=1;shadow=1;" parent="1" vertex="1"><mxGeometry x="500" y="470" width="120" height="60" as="geometry"/></mxCell><mxCell id="X0adh9UWfzy7p51SdVp_-16" value="" style="edgeStyle=orthogonalEdgeStyle;rounded=0;orthogonalLoop=1;jettySize=auto;html=1;fontSize=15;labelBackgroundColor=#283618;strokeColor=#DDA15E;fontColor=#FEFAE0;sketch=1;shadow=1;" parent="1" source="X0adh9UWfzy7p51SdVp_-18" target="X0adh9UWfzy7p51SdVp_-20" edge="1"><mxGeometry relative="1" as="geometry"/></mxCell><mxCell id="X0adh9UWfzy7p51SdVp_-17" value="" style="edgeStyle=orthogonalEdgeStyle;rounded=0;orthogonalLoop=1;jettySize=auto;html=1;fontSize=15;labelBackgroundColor=#283618;strokeColor=#DDA15E;fontColor=#FEFAE0;sketch=1;shadow=1;" parent="1" source="X0adh9UWfzy7p51SdVp_-18" target="X0adh9UWfzy7p51SdVp_-22" edge="1"><mxGeometry relative="1" as="geometry"/></mxCell><mxCell id="X0adh9UWfzy7p51SdVp_-18" value="He Can Check Design and Book One type&amp;nbsp;" style="whiteSpace=wrap;html=1;fontSize=15;rounded=1;fillColor=#BC6C25;strokeColor=#DDA15E;fontColor=#FEFAE0;sketch=1;shadow=1;" parent="1" vertex="1"><mxGeometry x="150" y="580" width="140" height="80" as="geometry"/></mxCell><mxCell id="X0adh9UWfzy7p51SdVp_-19" style="edgeStyle=orthogonalEdgeStyle;rounded=0;orthogonalLoop=1;jettySize=auto;html=1;entryX=0.5;entryY=0;entryDx=0;entryDy=0;fontSize=15;labelBackgroundColor=#283618;strokeColor=#DDA15E;fontColor=#FEFAE0;sketch=1;shadow=1;" parent="1" source="X0adh9UWfzy7p51SdVp_-20" target="X0adh9UWfzy7p51SdVp_-26" edge="1"><mxGeometry relative="1" as="geometry"><Array as="points"><mxPoint x="370" y="860"/><mxPoint x="230" y="860"/></Array></mxGeometry></mxCell><mxCell id="X0adh9UWfzy7p51SdVp_-20" value="Apartment&amp;nbsp;" style="whiteSpace=wrap;html=1;fontSize=15;rounded=1;fillColor=#BC6C25;strokeColor=#DDA15E;fontColor=#FEFAE0;sketch=1;shadow=1;" parent="1" vertex="1"><mxGeometry x="310" y="740" width="120" height="60" as="geometry"/></mxCell><mxCell id="X0adh9UWfzy7p51SdVp_-21" style="edgeStyle=orthogonalEdgeStyle;rounded=0;orthogonalLoop=1;jettySize=auto;html=1;exitX=0.5;exitY=1;exitDx=0;exitDy=0;fontSize=15;labelBackgroundColor=#283618;strokeColor=#DDA15E;fontColor=#FEFAE0;sketch=1;shadow=1;" parent="1" source="X0adh9UWfzy7p51SdVp_-22" target="X0adh9UWfzy7p51SdVp_-26" edge="1"><mxGeometry relative="1" as="geometry"/></mxCell><mxCell id="X0adh9UWfzy7p51SdVp_-22" value="Building House" style="whiteSpace=wrap;html=1;fontSize=15;rounded=1;fillColor=#BC6C25;strokeColor=#DDA15E;fontColor=#FEFAE0;sketch=1;shadow=1;" parent="1" vertex="1"><mxGeometry x="10" y="730" width="120" height="60" as="geometry"/></mxCell><mxCell id="X0adh9UWfzy7p51SdVp_-23" style="edgeStyle=orthogonalEdgeStyle;rounded=0;orthogonalLoop=1;jettySize=auto;html=1;exitX=1;exitY=0.5;exitDx=0;exitDy=0;fontSize=15;shape=link;labelBackgroundColor=#283618;strokeColor=#DDA15E;fontColor=#FEFAE0;sketch=1;shadow=1;" parent="1" source="X0adh9UWfzy7p51SdVp_-24" target="X0adh9UWfzy7p51SdVp_-8" edge="1"><mxGeometry relative="1" as="geometry"><mxPoint x="750" y="400" as="targetPoint"/><Array as="points"><mxPoint x="750" y="665"/><mxPoint x="750" y="400"/></Array></mxGeometry></mxCell><mxCell id="X0adh9UWfzy7p51SdVp_-24" value="1.Different Renovation Work related Home&amp;nbsp;" style="whiteSpace=wrap;html=1;fontSize=15;rounded=1;fillColor=#BC6C25;strokeColor=#DDA15E;fontColor=#FEFAE0;sketch=1;shadow=1;" parent="1" vertex="1"><mxGeometry x="455" y="620" width="210" height="90" as="geometry"/></mxCell><mxCell id="X0adh9UWfzy7p51SdVp_-25" style="edgeStyle=orthogonalEdgeStyle;rounded=0;orthogonalLoop=1;jettySize=auto;html=1;exitX=0;exitY=0.5;exitDx=0;exitDy=0;fontSize=15;shape=link;labelBackgroundColor=#283618;strokeColor=#DDA15E;fontColor=#FEFAE0;sketch=1;shadow=1;" parent="1" source="X0adh9UWfzy7p51SdVp_-26" target="X0adh9UWfzy7p51SdVp_-32" edge="1"><mxGeometry relative="1" as="geometry"/></mxCell><mxCell id="X0adh9UWfzy7p51SdVp_-26" value="User Booking" style="whiteSpace=wrap;html=1;fontSize=15;rounded=1;fillColor=#BC6C25;strokeColor=#DDA15E;fontColor=#FEFAE0;sketch=1;shadow=1;" parent="1" vertex="1"><mxGeometry x="170" y="920" width="120" height="60" as="geometry"/></mxCell><mxCell id="X0adh9UWfzy7p51SdVp_-27" value="Local Site Interface&amp;nbsp;&amp;nbsp;" style="whiteSpace=wrap;html=1;fontSize=15;rounded=1;fillColor=#BC6C25;strokeColor=#DDA15E;fontColor=#FEFAE0;sketch=1;shadow=1;" parent="1" vertex="1"><mxGeometry x="820" y="590" width="120" height="80" as="geometry"/></mxCell><mxCell id="X0adh9UWfzy7p51SdVp_-28" value="Authenticate&amp;nbsp;" style="text;html=1;strokeColor=none;fillColor=none;align=center;verticalAlign=middle;whiteSpace=wrap;rounded=0;fontSize=15;fontColor=#FEFAE0;sketch=1;shadow=1;" parent="1" vertex="1"><mxGeometry x="240" y="880" width="110" height="40" as="geometry"/></mxCell><mxCell id="X0adh9UWfzy7p51SdVp_-29" value="Authenticate&amp;nbsp;" style="text;html=1;strokeColor=none;fillColor=none;align=center;verticalAlign=middle;whiteSpace=wrap;rounded=0;fontSize=15;fontColor=#FEFAE0;sketch=1;shadow=1;" parent="1" vertex="1"><mxGeometry x="880" y="260" width="180" height="40" as="geometry"/></mxCell><mxCell id="X0adh9UWfzy7p51SdVp_-30" value="Authenticate&amp;nbsp;" style="text;html=1;strokeColor=none;fillColor=none;align=center;verticalAlign=middle;whiteSpace=wrap;rounded=0;fontSize=15;fontColor=#FEFAE0;sketch=1;shadow=1;" parent="1" vertex="1"><mxGeometry x="-240" y="250" width="180" height="40" as="geometry"/></mxCell><mxCell id="X0adh9UWfzy7p51SdVp_-31" style="edgeStyle=orthogonalEdgeStyle;shape=link;rounded=0;orthogonalLoop=1;jettySize=auto;html=1;exitX=0.75;exitY=1;exitDx=0;exitDy=0;fontSize=15;labelBackgroundColor=#283618;strokeColor=#DDA15E;fontColor=#FEFAE0;sketch=1;shadow=1;" parent="1" source="X0adh9UWfzy7p51SdVp_-32" edge="1"><mxGeometry relative="1" as="geometry"><mxPoint x="880" y="444" as="targetPoint"/><Array as="points"><mxPoint x="-290" y="530"/><mxPoint x="-290" y="1040"/><mxPoint x="1050" y="1040"/><mxPoint x="1050" y="420"/><mxPoint x="880" y="420"/></Array></mxGeometry></mxCell><mxCell id="X0adh9UWfzy7p51SdVp_-32" value="Employees" style="rounded=1;whiteSpace=wrap;html=1;fontSize=15;fillColor=#BC6C25;strokeColor=#DDA15E;fontColor=#FEFAE0;sketch=1;shadow=1;" parent="1" vertex="1"><mxGeometry x="-270" y="470" width="120" height="60" as="geometry"/></mxCell></root></mxGraphModel></diagram><diagram id="Rxo1ShRwbNdHgfUJzTBc" name="User Booking"><mxGraphModel dx="1969" dy="1033" grid="1" gridSize="10" guides="1" tooltips="1" connect="1" arrows="1" fold="1" page="1" pageScale="1" pageWidth="827" pageHeight="1169" background="#283618" math="0" shadow="0"><root><mxCell id="0"/><mxCell id="1" parent="0"/><mxCell id="7VjRah0uPmQ5ENQHp-91-1" value="" style="edgeStyle=orthogonalEdgeStyle;rounded=0;orthogonalLoop=1;jettySize=auto;html=1;labelBackgroundColor=#283618;strokeColor=#DDA15E;fontColor=#FEFAE0;sketch=1;shadow=1;" parent="1" source="7VjRah0uPmQ5ENQHp-91-2" target="7VjRah0uPmQ5ENQHp-91-6" edge="1"><mxGeometry relative="1" as="geometry"/></mxCell><mxCell id="7VjRah0uPmQ5ENQHp-91-2" value="User Booking&amp;nbsp;" style="rounded=1;whiteSpace=wrap;html=1;fillColor=#BC6C25;strokeColor=#DDA15E;fontColor=#FEFAE0;sketch=1;shadow=1;" parent="1" vertex="1"><mxGeometry x="360" y="40" width="120" height="60" as="geometry"/></mxCell><mxCell id="7VjRah0uPmQ5ENQHp-91-3" value="" style="edgeStyle=orthogonalEdgeStyle;rounded=0;orthogonalLoop=1;jettySize=auto;html=1;labelBackgroundColor=#283618;strokeColor=#DDA15E;fontColor=#FEFAE0;sketch=1;shadow=1;" parent="1" source="7VjRah0uPmQ5ENQHp-91-6" edge="1"><mxGeometry relative="1" as="geometry"><mxPoint x="420" y="320" as="targetPoint"/></mxGeometry></mxCell><mxCell id="7VjRah0uPmQ5ENQHp-91-4" value="" style="edgeStyle=orthogonalEdgeStyle;rounded=0;orthogonalLoop=1;jettySize=auto;html=1;labelBackgroundColor=#283618;strokeColor=#DDA15E;fontColor=#FEFAE0;sketch=1;shadow=1;" parent="1" source="7VjRah0uPmQ5ENQHp-91-6" target="7VjRah0uPmQ5ENQHp-91-8" edge="1"><mxGeometry relative="1" as="geometry"/></mxCell><mxCell id="7VjRah0uPmQ5ENQHp-91-5" value="" style="edgeStyle=orthogonalEdgeStyle;rounded=0;orthogonalLoop=1;jettySize=auto;html=1;labelBackgroundColor=#283618;strokeColor=#DDA15E;fontColor=#FEFAE0;sketch=1;shadow=1;" parent="1" source="7VjRah0uPmQ5ENQHp-91-6" target="7VjRah0uPmQ5ENQHp-91-15" edge="1"><mxGeometry relative="1" as="geometry"/></mxCell><mxCell id="7VjRah0uPmQ5ENQHp-91-6" value="Finace Tab&lt;br&gt;" style="ellipse;whiteSpace=wrap;html=1;rounded=1;fillColor=#BC6C25;strokeColor=#DDA15E;fontColor=#FEFAE0;sketch=1;shadow=1;" parent="1" vertex="1"><mxGeometry x="360" y="180" width="120" height="60" as="geometry"/></mxCell><mxCell id="7VjRah0uPmQ5ENQHp-91-7" value="" style="edgeStyle=orthogonalEdgeStyle;rounded=0;orthogonalLoop=1;jettySize=auto;html=1;labelBackgroundColor=#283618;strokeColor=#DDA15E;fontColor=#FEFAE0;sketch=1;shadow=1;" parent="1" source="7VjRah0uPmQ5ENQHp-91-8" target="7VjRah0uPmQ5ENQHp-91-10" edge="1"><mxGeometry relative="1" as="geometry"/></mxCell><mxCell id="7VjRah0uPmQ5ENQHp-91-8" value="Approximation Days&amp;nbsp;" style="ellipse;whiteSpace=wrap;html=1;rounded=1;fillColor=#BC6C25;strokeColor=#DDA15E;fontColor=#FEFAE0;sketch=1;shadow=1;" parent="1" vertex="1"><mxGeometry x="360" y="320" width="120" height="60" as="geometry"/></mxCell><mxCell id="7VjRah0uPmQ5ENQHp-91-9" value="" style="edgeStyle=orthogonalEdgeStyle;rounded=0;orthogonalLoop=1;jettySize=auto;html=1;labelBackgroundColor=#283618;strokeColor=#DDA15E;fontColor=#FEFAE0;sketch=1;shadow=1;" parent="1" source="7VjRah0uPmQ5ENQHp-91-10" target="7VjRah0uPmQ5ENQHp-91-12" edge="1"><mxGeometry relative="1" as="geometry"/></mxCell><mxCell id="7VjRah0uPmQ5ENQHp-91-10" value="Design&amp;nbsp;" style="ellipse;whiteSpace=wrap;html=1;rounded=1;fillColor=#BC6C25;strokeColor=#DDA15E;fontColor=#FEFAE0;sketch=1;shadow=1;" parent="1" vertex="1"><mxGeometry x="360" y="460" width="120" height="60" as="geometry"/></mxCell><mxCell id="7VjRah0uPmQ5ENQHp-91-11" value="" style="edgeStyle=orthogonalEdgeStyle;rounded=0;orthogonalLoop=1;jettySize=auto;html=1;labelBackgroundColor=#283618;strokeColor=#DDA15E;fontColor=#FEFAE0;sketch=1;shadow=1;" parent="1" source="7VjRah0uPmQ5ENQHp-91-12" target="7VjRah0uPmQ5ENQHp-91-13" edge="1"><mxGeometry relative="1" as="geometry"/></mxCell><mxCell id="7VjRah0uPmQ5ENQHp-91-12" value="Video" style="ellipse;whiteSpace=wrap;html=1;rounded=1;fillColor=#BC6C25;strokeColor=#DDA15E;fontColor=#FEFAE0;sketch=1;shadow=1;" parent="1" vertex="1"><mxGeometry x="360" y="600" width="120" height="60" as="geometry"/></mxCell><mxCell id="7VjRah0uPmQ5ENQHp-91-13" value="Support&lt;br&gt;" style="ellipse;whiteSpace=wrap;html=1;rounded=1;fillColor=#BC6C25;strokeColor=#DDA15E;fontColor=#FEFAE0;sketch=1;shadow=1;" parent="1" vertex="1"><mxGeometry x="360" y="740" width="120" height="60" as="geometry"/></mxCell><mxCell id="7VjRah0uPmQ5ENQHp-91-14" style="edgeStyle=orthogonalEdgeStyle;rounded=0;orthogonalLoop=1;jettySize=auto;html=1;fontSize=15;labelBackgroundColor=#283618;strokeColor=#DDA15E;fontColor=#FEFAE0;sketch=1;shadow=1;" parent="1" source="7VjRah0uPmQ5ENQHp-91-15" target="7VjRah0uPmQ5ENQHp-91-16" edge="1"><mxGeometry relative="1" as="geometry"/></mxCell><mxCell id="7VjRah0uPmQ5ENQHp-91-15" value="&lt;font style=&quot;font-size: 20px;&quot;&gt;1.list of items used for construction(With Prices )&amp;nbsp;&lt;br&gt;2.We can Add all items clickable&amp;nbsp;&lt;br&gt;&lt;/font&gt;" style="whiteSpace=wrap;html=1;rounded=1;fillColor=#BC6C25;strokeColor=#DDA15E;fontColor=#FEFAE0;sketch=1;shadow=1;" parent="1" vertex="1"><mxGeometry x="540" y="95" width="330" height="230" as="geometry"/></mxCell><mxCell id="7VjRah0uPmQ5ENQHp-91-16" value="&lt;font style=&quot;font-size: 15px;&quot;&gt;He will be able to replace the time&amp;nbsp;&lt;/font&gt;" style="rhombus;whiteSpace=wrap;html=1;rounded=1;fillColor=#BC6C25;strokeColor=#DDA15E;fontColor=#FEFAE0;sketch=1;shadow=1;" parent="1" vertex="1"><mxGeometry x="626.25" y="430" width="157.5" height="170" as="geometry"/></mxCell></root></mxGraphModel></diagram><diagram id="Yv_C0rH2i6WGO-CZVOJa" name="Technician Phase"><mxGraphModel dx="1969" dy="1033" grid="1" gridSize="10" guides="1" tooltips="1" connect="1" arrows="1" fold="1" page="1" pageScale="1" pageWidth="827" pageHeight="1169" background="#283618" math="0" shadow="0"><root><mxCell id="0"/><mxCell id="1" parent="0"/><mxCell id="mwOr1Gwc2dIVsIGH42Fa-1" value="" style="edgeStyle=orthogonalEdgeStyle;rounded=0;orthogonalLoop=1;jettySize=auto;html=1;fontSize=15;labelBackgroundColor=#283618;strokeColor=#DDA15E;fontColor=#FEFAE0;sketch=1;shadow=1;" parent="1" source="mwOr1Gwc2dIVsIGH42Fa-3" target="mwOr1Gwc2dIVsIGH42Fa-9" edge="1"><mxGeometry relative="1" as="geometry"/></mxCell><mxCell id="mwOr1Gwc2dIVsIGH42Fa-2" style="edgeStyle=orthogonalEdgeStyle;rounded=0;orthogonalLoop=1;jettySize=auto;html=1;exitX=0;exitY=0.5;exitDx=0;exitDy=0;fontSize=15;labelBackgroundColor=#283618;strokeColor=#DDA15E;fontColor=#FEFAE0;sketch=1;shadow=1;" parent="1" source="mwOr1Gwc2dIVsIGH42Fa-3" target="mwOr1Gwc2dIVsIGH42Fa-7" edge="1"><mxGeometry relative="1" as="geometry"/></mxCell><mxCell id="mwOr1Gwc2dIVsIGH42Fa-3" value="Technicians&amp;nbsp;" style="rounded=1;whiteSpace=wrap;html=1;fontSize=15;fillColor=#BC6C25;strokeColor=#DDA15E;fontColor=#FEFAE0;sketch=1;shadow=1;" parent="1" vertex="1"><mxGeometry x="320" y="30" width="170" height="60" as="geometry"/></mxCell><mxCell id="mwOr1Gwc2dIVsIGH42Fa-4" value="" style="edgeStyle=orthogonalEdgeStyle;rounded=0;orthogonalLoop=1;jettySize=auto;html=1;fontSize=15;exitX=0.5;exitY=1;exitDx=0;exitDy=0;labelBackgroundColor=#283618;strokeColor=#DDA15E;fontColor=#FEFAE0;sketch=1;shadow=1;" parent="1" source="mwOr1Gwc2dIVsIGH42Fa-20" target="mwOr1Gwc2dIVsIGH42Fa-11" edge="1"><mxGeometry relative="1" as="geometry"/></mxCell><mxCell id="mwOr1Gwc2dIVsIGH42Fa-5" style="edgeStyle=orthogonalEdgeStyle;rounded=0;orthogonalLoop=1;jettySize=auto;html=1;exitX=1;exitY=0.5;exitDx=0;exitDy=0;fontSize=15;entryX=-0.017;entryY=0.65;entryDx=0;entryDy=0;entryPerimeter=0;startArrow=none;labelBackgroundColor=#283618;strokeColor=#DDA15E;fontColor=#FEFAE0;sketch=1;shadow=1;" parent="1" source="mwOr1Gwc2dIVsIGH42Fa-20" target="mwOr1Gwc2dIVsIGH42Fa-19" edge="1"><mxGeometry relative="1" as="geometry"><mxPoint x="210" y="250" as="targetPoint"/></mxGeometry></mxCell><mxCell id="mwOr1Gwc2dIVsIGH42Fa-6" style="edgeStyle=orthogonalEdgeStyle;rounded=0;orthogonalLoop=1;jettySize=auto;html=1;exitX=0.5;exitY=1;exitDx=0;exitDy=0;entryX=0.5;entryY=0;entryDx=0;entryDy=0;fontSize=15;labelBackgroundColor=#283618;strokeColor=#DDA15E;fontColor=#FEFAE0;sketch=1;shadow=1;" parent="1" source="mwOr1Gwc2dIVsIGH42Fa-7" target="mwOr1Gwc2dIVsIGH42Fa-20" edge="1"><mxGeometry relative="1" as="geometry"/></mxCell><mxCell id="mwOr1Gwc2dIVsIGH42Fa-7" value="New Builder" style="whiteSpace=wrap;html=1;fontSize=15;rounded=1;fillColor=#BC6C25;strokeColor=#DDA15E;fontColor=#FEFAE0;sketch=1;shadow=1;" parent="1" vertex="1"><mxGeometry x="20" y="30" width="120" height="60" as="geometry"/></mxCell><mxCell id="mwOr1Gwc2dIVsIGH42Fa-8" value="" style="edgeStyle=orthogonalEdgeStyle;rounded=0;orthogonalLoop=1;jettySize=auto;html=1;fontSize=15;labelBackgroundColor=#283618;strokeColor=#DDA15E;fontColor=#FEFAE0;sketch=1;shadow=1;" parent="1" source="mwOr1Gwc2dIVsIGH42Fa-9" target="mwOr1Gwc2dIVsIGH42Fa-16" edge="1"><mxGeometry relative="1" as="geometry"/></mxCell><mxCell id="mwOr1Gwc2dIVsIGH42Fa-9" value="Individual Technicians&amp;nbsp;" style="whiteSpace=wrap;html=1;fontSize=15;rounded=1;fillColor=#BC6C25;strokeColor=#DDA15E;fontColor=#FEFAE0;sketch=1;shadow=1;" parent="1" vertex="1"><mxGeometry x="780" y="200" width="120" height="60" as="geometry"/></mxCell><mxCell id="mwOr1Gwc2dIVsIGH42Fa-10" style="edgeStyle=orthogonalEdgeStyle;rounded=0;orthogonalLoop=1;jettySize=auto;html=1;exitX=0.5;exitY=1;exitDx=0;exitDy=0;fontSize=15;labelBackgroundColor=#283618;strokeColor=#DDA15E;fontColor=#FEFAE0;sketch=1;shadow=1;" parent="1" source="mwOr1Gwc2dIVsIGH42Fa-11" target="mwOr1Gwc2dIVsIGH42Fa-13" edge="1"><mxGeometry relative="1" as="geometry"/></mxCell><mxCell id="mwOr1Gwc2dIVsIGH42Fa-11" value="Build Phase&amp;nbsp;" style="whiteSpace=wrap;html=1;fontSize=15;rounded=1;fillColor=#BC6C25;strokeColor=#DDA15E;fontColor=#FEFAE0;sketch=1;shadow=1;" parent="1" vertex="1"><mxGeometry x="20" y="360" width="120" height="60" as="geometry"/></mxCell><mxCell id="mwOr1Gwc2dIVsIGH42Fa-12" style="edgeStyle=orthogonalEdgeStyle;rounded=0;orthogonalLoop=1;jettySize=auto;html=1;exitX=0.5;exitY=1;exitDx=0;exitDy=0;entryX=0.417;entryY=0;entryDx=0;entryDy=0;entryPerimeter=0;fontSize=15;labelBackgroundColor=#283618;strokeColor=#DDA15E;fontColor=#FEFAE0;sketch=1;shadow=1;" parent="1" source="mwOr1Gwc2dIVsIGH42Fa-13" target="mwOr1Gwc2dIVsIGH42Fa-14" edge="1"><mxGeometry relative="1" as="geometry"/></mxCell><mxCell id="mwOr1Gwc2dIVsIGH42Fa-13" value="Finishing Phase" style="whiteSpace=wrap;html=1;fontSize=15;rounded=1;fillColor=#BC6C25;strokeColor=#DDA15E;fontColor=#FEFAE0;sketch=1;shadow=1;" parent="1" vertex="1"><mxGeometry x="20" y="510" width="120" height="60" as="geometry"/></mxCell><mxCell id="mwOr1Gwc2dIVsIGH42Fa-14" value="Review And HandOver&amp;nbsp;" style="whiteSpace=wrap;html=1;fontSize=15;rounded=1;fillColor=#BC6C25;strokeColor=#DDA15E;fontColor=#FEFAE0;sketch=1;shadow=1;" parent="1" vertex="1"><mxGeometry x="30" y="660" width="120" height="60" as="geometry"/></mxCell><mxCell id="mwOr1Gwc2dIVsIGH42Fa-15" value="" style="edgeStyle=orthogonalEdgeStyle;rounded=0;orthogonalLoop=1;jettySize=auto;html=1;fontSize=15;labelBackgroundColor=#283618;strokeColor=#DDA15E;fontColor=#FEFAE0;sketch=1;shadow=1;" parent="1" source="mwOr1Gwc2dIVsIGH42Fa-16" target="mwOr1Gwc2dIVsIGH42Fa-17" edge="1"><mxGeometry relative="1" as="geometry"/></mxCell><mxCell id="mwOr1Gwc2dIVsIGH42Fa-16" value="1.Plumbers&lt;br&gt;2.Electrician&amp;nbsp;&lt;br&gt;3.Carpenter&amp;nbsp;&lt;br&gt;4.Cement worker&amp;nbsp;&lt;br&gt;5.Labor&lt;br&gt;6.Black Smith (For Iron)&lt;br&gt;7.Interior Designer&lt;br&gt;8.Engineers&lt;br&gt;9.Painters&amp;nbsp;" style="whiteSpace=wrap;html=1;fontSize=15;rounded=1;fillColor=#BC6C25;strokeColor=#DDA15E;fontColor=#FEFAE0;sketch=1;shadow=1;" parent="1" vertex="1"><mxGeometry x="670" y="390" width="340" height="200" as="geometry"/></mxCell><mxCell id="mwOr1Gwc2dIVsIGH42Fa-17" value="Renovate Phase" style="whiteSpace=wrap;html=1;fontSize=15;rounded=1;fillColor=#BC6C25;strokeColor=#DDA15E;fontColor=#FEFAE0;sketch=1;shadow=1;" parent="1" vertex="1"><mxGeometry x="300" y="460" width="120" height="60" as="geometry"/></mxCell><mxCell id="mwOr1Gwc2dIVsIGH42Fa-18" value="Employee Verify" style="rounded=1;whiteSpace=wrap;html=1;fontSize=15;fillColor=#BC6C25;strokeColor=#DDA15E;fontColor=#FEFAE0;sketch=1;shadow=1;" parent="1" vertex="1"><mxGeometry x="480" y="460" width="120" height="60" as="geometry"/></mxCell><mxCell id="mwOr1Gwc2dIVsIGH42Fa-19" value="User view" style="rounded=1;whiteSpace=wrap;html=1;fontSize=15;fillColor=#BC6C25;strokeColor=#DDA15E;fontColor=#FEFAE0;sketch=1;shadow=1;" parent="1" vertex="1"><mxGeometry x="300" y="190" width="120" height="60" as="geometry"/></mxCell><mxCell id="mwOr1Gwc2dIVsIGH42Fa-20" value="Employee Review" style="rounded=1;whiteSpace=wrap;html=1;fontSize=15;fillColor=#BC6C25;strokeColor=#DDA15E;fontColor=#FEFAE0;sketch=1;shadow=1;" parent="1" vertex="1"><mxGeometry x="20" y="205" width="120" height="50" as="geometry"/></mxCell></root></mxGraphModel></diagram><diagram id="F0d0dUyw7mSod2goAlkF" name="Admin"><mxGraphModel dx="1378" dy="723" grid="1" gridSize="10" guides="1" tooltips="1" connect="1" arrows="1" fold="1" page="1" pageScale="1" pageWidth="827" pageHeight="1169" background="#283618" math="0" shadow="0"><root><mxCell id="0"/><mxCell id="1" parent="0"/><mxCell id="IN3qDJyA8TEnZyT6leyA-1" value="Admin" style="rounded=1;whiteSpace=wrap;html=1;fontSize=15;fillColor=#BC6C25;strokeColor=#DDA15E;fontColor=#FEFAE0;sketch=1;glass=0;shadow=1;" parent="1" vertex="1"><mxGeometry x="510" y="110" width="120" height="60" as="geometry"/></mxCell></root></mxGraphModel></diagram><diagram id="wYiHTTqDa6ZNmPnJskGG" name="DB Schema"><mxGraphModel dx="551" dy="723" grid="1" gridSize="10" guides="1" tooltips="1" connect="1" arrows="1" fold="1" page="1" pageScale="1" pageWidth="827" pageHeight="1169" background="#283618" math="0" shadow="0"><root><mxCell id="0"/><mxCell id="1" parent="0"/><mxCell id="Ks41ul4XoMLJgPUPEkn8-448" value="User" style="shape=table;startSize=30;container=1;collapsible=0;childLayout=tableLayout;fixedRows=1;rowLines=0;fontStyle=1;align=center;pointerEvents=1;rounded=1;swimlaneFillColor=none;strokeColor=#DDA15E;shadow=1;labelBackgroundColor=none;labelBorderColor=none;sketch=1;fontColor=#FEFAE0;fillColor=#BC6C25;" parent="1" vertex="1"><mxGeometry x="1560" y="160" width="180" height="240" as="geometry"/></mxCell><mxCell id="Ks41ul4XoMLJgPUPEkn8-449" value="" style="shape=partialRectangle;html=1;whiteSpace=wrap;collapsible=0;dropTarget=0;pointerEvents=1;fillColor=none;top=0;left=0;bottom=1;right=0;points=[[0,0.5],[1,0.5]];portConstraint=eastwest;rounded=1;shadow=1;sketch=1;labelBackgroundColor=none;fontColor=#FEFAE0;strokeColor=#DDA15E;" parent="Ks41ul4XoMLJgPUPEkn8-448" vertex="1"><mxGeometry y="30" width="180" height="30" as="geometry"/></mxCell><mxCell id="Ks41ul4XoMLJgPUPEkn8-450" value="PK" style="shape=partialRectangle;html=1;whiteSpace=wrap;connectable=0;fillColor=none;top=0;left=0;bottom=0;right=0;overflow=hidden;pointerEvents=1;rounded=1;shadow=1;sketch=1;labelBackgroundColor=none;fontColor=#FEFAE0;strokeColor=#DDA15E;" parent="Ks41ul4XoMLJgPUPEkn8-449" vertex="1"><mxGeometry width="40" height="30" as="geometry"><mxRectangle width="40" height="30" as="alternateBounds"/></mxGeometry></mxCell><mxCell id="Ks41ul4XoMLJgPUPEkn8-451" value="Id" style="shape=partialRectangle;html=1;whiteSpace=wrap;connectable=0;fillColor=none;top=0;left=0;bottom=0;right=0;align=left;spacingLeft=6;overflow=hidden;pointerEvents=1;rounded=1;shadow=1;sketch=1;labelBackgroundColor=none;fontColor=#FEFAE0;strokeColor=#DDA15E;" parent="Ks41ul4XoMLJgPUPEkn8-449" vertex="1"><mxGeometry x="40" width="140" height="30" as="geometry"><mxRectangle width="140" height="30" as="alternateBounds"/></mxGeometry></mxCell><mxCell id="Ks41ul4XoMLJgPUPEkn8-452" value="" style="shape=partialRectangle;html=1;whiteSpace=wrap;collapsible=0;dropTarget=0;pointerEvents=1;fillColor=none;top=0;left=0;bottom=0;right=0;points=[[0,0.5],[1,0.5]];portConstraint=eastwest;rounded=1;shadow=1;sketch=1;labelBackgroundColor=none;fontColor=#FEFAE0;strokeColor=#DDA15E;" parent="Ks41ul4XoMLJgPUPEkn8-448" vertex="1"><mxGeometry y="60" width="180" height="30" as="geometry"/></mxCell><mxCell id="Ks41ul4XoMLJgPUPEkn8-453" value="2" style="shape=partialRectangle;html=1;whiteSpace=wrap;connectable=0;fillColor=none;top=0;left=0;bottom=0;right=0;overflow=hidden;pointerEvents=1;rounded=1;shadow=1;sketch=1;labelBackgroundColor=none;fontColor=#FEFAE0;strokeColor=#DDA15E;" parent="Ks41ul4XoMLJgPUPEkn8-452" vertex="1"><mxGeometry width="40" height="30" as="geometry"><mxRectangle width="40" height="30" as="alternateBounds"/></mxGeometry></mxCell><mxCell id="Ks41ul4XoMLJgPUPEkn8-454" value="first_name : str" style="shape=partialRectangle;html=1;whiteSpace=wrap;connectable=0;fillColor=none;top=0;left=0;bottom=0;right=0;align=left;spacingLeft=6;overflow=hidden;pointerEvents=1;rounded=1;shadow=1;sketch=1;labelBackgroundColor=none;fontColor=#FEFAE0;strokeColor=#DDA15E;" parent="Ks41ul4XoMLJgPUPEkn8-452" vertex="1"><mxGeometry x="40" width="140" height="30" as="geometry"><mxRectangle width="140" height="30" as="alternateBounds"/></mxGeometry></mxCell><mxCell id="Ks41ul4XoMLJgPUPEkn8-455" value="" style="shape=partialRectangle;html=1;whiteSpace=wrap;collapsible=0;dropTarget=0;pointerEvents=1;fillColor=none;top=0;left=0;bottom=0;right=0;points=[[0,0.5],[1,0.5]];portConstraint=eastwest;rounded=1;shadow=1;sketch=1;labelBackgroundColor=none;fontColor=#FEFAE0;strokeColor=#DDA15E;" parent="Ks41ul4XoMLJgPUPEkn8-448" vertex="1"><mxGeometry y="90" width="180" height="30" as="geometry"/></mxCell><mxCell id="Ks41ul4XoMLJgPUPEkn8-456" value="3" style="shape=partialRectangle;html=1;whiteSpace=wrap;connectable=0;fillColor=none;top=0;left=0;bottom=0;right=0;overflow=hidden;pointerEvents=1;rounded=1;shadow=1;sketch=1;labelBackgroundColor=none;fontColor=#FEFAE0;strokeColor=#DDA15E;" parent="Ks41ul4XoMLJgPUPEkn8-455" vertex="1"><mxGeometry width="40" height="30" as="geometry"><mxRectangle width="40" height="30" as="alternateBounds"/></mxGeometry></mxCell><mxCell id="Ks41ul4XoMLJgPUPEkn8-457" value="last_name : str" style="shape=partialRectangle;html=1;whiteSpace=wrap;connectable=0;fillColor=none;top=0;left=0;bottom=0;right=0;align=left;spacingLeft=6;overflow=hidden;pointerEvents=1;rounded=1;shadow=1;sketch=1;labelBackgroundColor=none;fontColor=#FEFAE0;strokeColor=#DDA15E;" parent="Ks41ul4XoMLJgPUPEkn8-455" vertex="1"><mxGeometry x="40" width="140" height="30" as="geometry"><mxRectangle width="140" height="30" as="alternateBounds"/></mxGeometry></mxCell><mxCell id="Ks41ul4XoMLJgPUPEkn8-458" style="shape=partialRectangle;html=1;whiteSpace=wrap;collapsible=0;dropTarget=0;pointerEvents=1;fillColor=none;top=0;left=0;bottom=0;right=0;points=[[0,0.5],[1,0.5]];portConstraint=eastwest;rounded=1;shadow=1;sketch=1;labelBackgroundColor=none;fontColor=#FEFAE0;strokeColor=#DDA15E;" parent="Ks41ul4XoMLJgPUPEkn8-448" vertex="1"><mxGeometry y="120" width="180" height="30" as="geometry"/></mxCell><mxCell id="Ks41ul4XoMLJgPUPEkn8-459" value="4" style="shape=partialRectangle;html=1;whiteSpace=wrap;connectable=0;fillColor=none;top=0;left=0;bottom=0;right=0;overflow=hidden;pointerEvents=1;rounded=1;shadow=1;sketch=1;labelBackgroundColor=none;fontColor=#FEFAE0;strokeColor=#DDA15E;" parent="Ks41ul4XoMLJgPUPEkn8-458" vertex="1"><mxGeometry width="40" height="30" as="geometry"><mxRectangle width="40" height="30" as="alternateBounds"/></mxGeometry></mxCell><mxCell id="Ks41ul4XoMLJgPUPEkn8-460" value="email : str" style="shape=partialRectangle;html=1;whiteSpace=wrap;connectable=0;fillColor=none;top=0;left=0;bottom=0;right=0;align=left;spacingLeft=6;overflow=hidden;pointerEvents=1;rounded=1;shadow=1;sketch=1;labelBackgroundColor=none;fontColor=#FEFAE0;strokeColor=#DDA15E;" parent="Ks41ul4XoMLJgPUPEkn8-458" vertex="1"><mxGeometry x="40" width="140" height="30" as="geometry"><mxRectangle width="140" height="30" as="alternateBounds"/></mxGeometry></mxCell><mxCell id="Ks41ul4XoMLJgPUPEkn8-461" style="shape=partialRectangle;html=1;whiteSpace=wrap;collapsible=0;dropTarget=0;pointerEvents=1;fillColor=none;top=0;left=0;bottom=0;right=0;points=[[0,0.5],[1,0.5]];portConstraint=eastwest;rounded=1;shadow=1;sketch=1;labelBackgroundColor=none;fontColor=#FEFAE0;strokeColor=#DDA15E;" parent="Ks41ul4XoMLJgPUPEkn8-448" vertex="1"><mxGeometry y="150" width="180" height="30" as="geometry"/></mxCell><mxCell id="Ks41ul4XoMLJgPUPEkn8-462" value="5" style="shape=partialRectangle;html=1;whiteSpace=wrap;connectable=0;fillColor=none;top=0;left=0;bottom=0;right=0;overflow=hidden;pointerEvents=1;rounded=1;shadow=1;sketch=1;labelBackgroundColor=none;fontColor=#FEFAE0;strokeColor=#DDA15E;" parent="Ks41ul4XoMLJgPUPEkn8-461" vertex="1"><mxGeometry width="40" height="30" as="geometry"><mxRectangle width="40" height="30" as="alternateBounds"/></mxGeometry></mxCell><mxCell id="Ks41ul4XoMLJgPUPEkn8-463" value="ph number : str" style="shape=partialRectangle;html=1;whiteSpace=wrap;connectable=0;fillColor=none;top=0;left=0;bottom=0;right=0;align=left;spacingLeft=6;overflow=hidden;pointerEvents=1;rounded=1;shadow=1;sketch=1;labelBackgroundColor=none;fontColor=#FEFAE0;strokeColor=#DDA15E;" parent="Ks41ul4XoMLJgPUPEkn8-461" vertex="1"><mxGeometry x="40" width="140" height="30" as="geometry"><mxRectangle width="140" height="30" as="alternateBounds"/></mxGeometry></mxCell><mxCell id="Ks41ul4XoMLJgPUPEkn8-464" style="shape=partialRectangle;html=1;whiteSpace=wrap;collapsible=0;dropTarget=0;pointerEvents=1;fillColor=none;top=0;left=0;bottom=0;right=0;points=[[0,0.5],[1,0.5]];portConstraint=eastwest;rounded=1;shadow=1;sketch=1;labelBackgroundColor=none;fontColor=#FEFAE0;strokeColor=#DDA15E;" parent="Ks41ul4XoMLJgPUPEkn8-448" vertex="1"><mxGeometry y="180" width="180" height="30" as="geometry"/></mxCell><mxCell id="Ks41ul4XoMLJgPUPEkn8-465" value="6" style="shape=partialRectangle;html=1;whiteSpace=wrap;connectable=0;fillColor=none;top=0;left=0;bottom=0;right=0;overflow=hidden;pointerEvents=1;rounded=1;shadow=1;sketch=1;labelBackgroundColor=none;fontColor=#FEFAE0;strokeColor=#DDA15E;" parent="Ks41ul4XoMLJgPUPEkn8-464" vertex="1"><mxGeometry width="40" height="30" as="geometry"><mxRectangle width="40" height="30" as="alternateBounds"/></mxGeometry></mxCell><mxCell id="Ks41ul4XoMLJgPUPEkn8-466" value="password : hashed str" style="shape=partialRectangle;html=1;whiteSpace=wrap;connectable=0;fillColor=none;top=0;left=0;bottom=0;right=0;align=left;spacingLeft=6;overflow=hidden;pointerEvents=1;rounded=1;shadow=1;sketch=1;labelBackgroundColor=none;fontColor=#FEFAE0;strokeColor=#DDA15E;" parent="Ks41ul4XoMLJgPUPEkn8-464" vertex="1"><mxGeometry x="40" width="140" height="30" as="geometry"><mxRectangle width="140" height="30" as="alternateBounds"/></mxGeometry></mxCell><mxCell id="Ks41ul4XoMLJgPUPEkn8-467" style="shape=partialRectangle;html=1;whiteSpace=wrap;collapsible=0;dropTarget=0;pointerEvents=1;fillColor=none;top=0;left=0;bottom=0;right=0;points=[[0,0.5],[1,0.5]];portConstraint=eastwest;rounded=1;shadow=1;sketch=1;labelBackgroundColor=none;fontColor=#FEFAE0;strokeColor=#DDA15E;" parent="Ks41ul4XoMLJgPUPEkn8-448" vertex="1"><mxGeometry y="210" width="180" height="30" as="geometry"/></mxCell><mxCell id="Ks41ul4XoMLJgPUPEkn8-468" value="7" style="shape=partialRectangle;html=1;whiteSpace=wrap;connectable=0;fillColor=none;top=0;left=0;bottom=0;right=0;overflow=hidden;pointerEvents=1;rounded=1;shadow=1;sketch=1;labelBackgroundColor=none;fontColor=#FEFAE0;strokeColor=#DDA15E;" parent="Ks41ul4XoMLJgPUPEkn8-467" vertex="1"><mxGeometry width="40" height="30" as="geometry"><mxRectangle width="40" height="30" as="alternateBounds"/></mxGeometry></mxCell><mxCell id="Ks41ul4XoMLJgPUPEkn8-469" value="is_admin : bool" style="shape=partialRectangle;html=1;whiteSpace=wrap;connectable=0;fillColor=none;top=0;left=0;bottom=0;right=0;align=left;spacingLeft=6;overflow=hidden;pointerEvents=1;rounded=1;shadow=1;sketch=1;labelBackgroundColor=none;fontColor=#FEFAE0;strokeColor=#DDA15E;" parent="Ks41ul4XoMLJgPUPEkn8-467" vertex="1"><mxGeometry x="40" width="140" height="30" as="geometry"><mxRectangle width="140" height="30" as="alternateBounds"/></mxGeometry></mxCell><mxCell id="Ks41ul4XoMLJgPUPEkn8-470" value="Builder" style="shape=table;startSize=30;container=1;collapsible=0;childLayout=tableLayout;fixedRows=1;rowLines=0;fontStyle=1;align=center;pointerEvents=1;rounded=1;swimlaneFillColor=none;strokeColor=#DDA15E;shadow=1;labelBackgroundColor=none;labelBorderColor=none;sketch=1;fontColor=#FEFAE0;fillColor=#BC6C25;" parent="1" vertex="1"><mxGeometry x="1830" y="160" width="190" height="300" as="geometry"/></mxCell><mxCell id="Ks41ul4XoMLJgPUPEkn8-471" value="" style="shape=partialRectangle;html=1;whiteSpace=wrap;collapsible=0;dropTarget=0;pointerEvents=1;fillColor=none;top=0;left=0;bottom=1;right=0;points=[[0,0.5],[1,0.5]];portConstraint=eastwest;rounded=1;shadow=1;sketch=1;labelBackgroundColor=none;fontColor=#FEFAE0;strokeColor=#DDA15E;" parent="Ks41ul4XoMLJgPUPEkn8-470" vertex="1"><mxGeometry y="30" width="190" height="30" as="geometry"/></mxCell><mxCell id="Ks41ul4XoMLJgPUPEkn8-472" value="PK" style="shape=partialRectangle;html=1;whiteSpace=wrap;connectable=0;fillColor=none;top=0;left=0;bottom=0;right=0;overflow=hidden;pointerEvents=1;rounded=1;shadow=1;sketch=1;labelBackgroundColor=none;fontColor=#FEFAE0;strokeColor=#DDA15E;" parent="Ks41ul4XoMLJgPUPEkn8-471" vertex="1"><mxGeometry width="42" height="30" as="geometry"><mxRectangle width="42" height="30" as="alternateBounds"/></mxGeometry></mxCell><mxCell id="Ks41ul4XoMLJgPUPEkn8-473" value="Id" style="shape=partialRectangle;html=1;whiteSpace=wrap;connectable=0;fillColor=none;top=0;left=0;bottom=0;right=0;align=left;spacingLeft=6;overflow=hidden;pointerEvents=1;rounded=1;shadow=1;sketch=1;labelBackgroundColor=none;fontColor=#FEFAE0;strokeColor=#DDA15E;" parent="Ks41ul4XoMLJgPUPEkn8-471" vertex="1"><mxGeometry x="42" width="148" height="30" as="geometry"><mxRectangle width="148" height="30" as="alternateBounds"/></mxGeometry></mxCell><mxCell id="Ks41ul4XoMLJgPUPEkn8-474" style="shape=partialRectangle;html=1;whiteSpace=wrap;collapsible=0;dropTarget=0;pointerEvents=1;fillColor=none;top=0;left=0;bottom=1;right=0;points=[[0,0.5],[1,0.5]];portConstraint=eastwest;rounded=1;shadow=1;sketch=1;labelBackgroundColor=none;fontColor=#FEFAE0;strokeColor=#DDA15E;" parent="Ks41ul4XoMLJgPUPEkn8-470" vertex="1"><mxGeometry y="60" width="190" height="30" as="geometry"/></mxCell><mxCell id="Ks41ul4XoMLJgPUPEkn8-475" value="&lt;span style=&quot;font-family: helvetica; font-size: 12px; font-style: normal; font-weight: 400; letter-spacing: normal; text-align: center; text-indent: 0px; text-transform: none; word-spacing: 0px; display: inline; float: none;&quot;&gt;UK&lt;/span&gt;" style="shape=partialRectangle;html=1;whiteSpace=wrap;connectable=0;fillColor=none;top=0;left=0;bottom=0;right=0;overflow=hidden;pointerEvents=1;rounded=1;shadow=1;sketch=1;labelBackgroundColor=none;fontColor=#FEFAE0;strokeColor=#DDA15E;" parent="Ks41ul4XoMLJgPUPEkn8-474" vertex="1"><mxGeometry width="42" height="30" as="geometry"><mxRectangle width="42" height="30" as="alternateBounds"/></mxGeometry></mxCell><mxCell id="Ks41ul4XoMLJgPUPEkn8-476" value="&lt;span style=&quot;font-family: helvetica; font-size: 12px; font-style: normal; font-weight: 400; letter-spacing: normal; text-align: left; text-indent: 0px; text-transform: none; word-spacing: 0px; display: inline; float: none;&quot;&gt;User.Id NOT NULL&lt;/span&gt;" style="shape=partialRectangle;html=1;whiteSpace=wrap;connectable=0;fillColor=none;top=0;left=0;bottom=0;right=0;align=left;spacingLeft=6;overflow=hidden;pointerEvents=1;rounded=1;shadow=1;sketch=1;labelBackgroundColor=none;fontColor=#FEFAE0;strokeColor=#DDA15E;" parent="Ks41ul4XoMLJgPUPEkn8-474" vertex="1"><mxGeometry x="42" width="148" height="30" as="geometry"><mxRectangle width="148" height="30" as="alternateBounds"/></mxGeometry></mxCell><mxCell id="Ks41ul4XoMLJgPUPEkn8-477" style="shape=partialRectangle;html=1;whiteSpace=wrap;collapsible=0;dropTarget=0;pointerEvents=1;fillColor=none;top=0;left=0;bottom=1;right=0;points=[[0,0.5],[1,0.5]];portConstraint=eastwest;rounded=1;shadow=1;sketch=1;labelBackgroundColor=none;fontColor=#FEFAE0;strokeColor=#DDA15E;" parent="Ks41ul4XoMLJgPUPEkn8-470" vertex="1"><mxGeometry y="90" width="190" height="30" as="geometry"/></mxCell><mxCell id="Ks41ul4XoMLJgPUPEkn8-478" value="FK" style="shape=partialRectangle;html=1;whiteSpace=wrap;connectable=0;fillColor=none;top=0;left=0;bottom=0;right=0;overflow=hidden;pointerEvents=1;rounded=1;shadow=1;sketch=1;labelBackgroundColor=none;fontColor=#FEFAE0;strokeColor=#DDA15E;" parent="Ks41ul4XoMLJgPUPEkn8-477" vertex="1"><mxGeometry width="42" height="30" as="geometry"><mxRectangle width="42" height="30" as="alternateBounds"/></mxGeometry></mxCell><mxCell id="Ks41ul4XoMLJgPUPEkn8-479" value="&lt;span style=&quot;font-family: helvetica; font-size: 12px; font-style: normal; font-weight: 400; letter-spacing: normal; text-align: left; text-indent: 0px; text-transform: none; word-spacing: 0px; display: inline; float: none;&quot;&gt;Man_force.Id NOT NULL&lt;/span&gt;" style="shape=partialRectangle;html=1;whiteSpace=wrap;connectable=0;fillColor=none;top=0;left=0;bottom=0;right=0;align=left;spacingLeft=6;overflow=hidden;pointerEvents=1;rounded=1;shadow=1;sketch=1;labelBackgroundColor=none;fontColor=#FEFAE0;strokeColor=#DDA15E;" parent="Ks41ul4XoMLJgPUPEkn8-477" vertex="1"><mxGeometry x="42" width="148" height="30" as="geometry"><mxRectangle width="148" height="30" as="alternateBounds"/></mxGeometry></mxCell><mxCell id="Ks41ul4XoMLJgPUPEkn8-480" value="" style="shape=partialRectangle;html=1;whiteSpace=wrap;collapsible=0;dropTarget=0;pointerEvents=1;fillColor=none;top=0;left=0;bottom=0;right=0;points=[[0,0.5],[1,0.5]];portConstraint=eastwest;rounded=1;shadow=1;sketch=1;labelBackgroundColor=none;fontColor=#FEFAE0;strokeColor=#DDA15E;" parent="Ks41ul4XoMLJgPUPEkn8-470" vertex="1"><mxGeometry y="120" width="190" height="30" as="geometry"/></mxCell><mxCell id="Ks41ul4XoMLJgPUPEkn8-481" value="3" style="shape=partialRectangle;html=1;whiteSpace=wrap;connectable=0;fillColor=none;top=0;left=0;bottom=0;right=0;overflow=hidden;pointerEvents=1;rounded=1;shadow=1;sketch=1;labelBackgroundColor=none;fontColor=#FEFAE0;strokeColor=#DDA15E;" parent="Ks41ul4XoMLJgPUPEkn8-480" vertex="1"><mxGeometry width="42" height="30" as="geometry"><mxRectangle width="42" height="30" as="alternateBounds"/></mxGeometry></mxCell><mxCell id="Ks41ul4XoMLJgPUPEkn8-482" value="experience : float" style="shape=partialRectangle;html=1;whiteSpace=wrap;connectable=0;fillColor=none;top=0;left=0;bottom=0;right=0;align=left;spacingLeft=6;overflow=hidden;pointerEvents=1;rounded=1;shadow=1;sketch=1;labelBackgroundColor=none;fontColor=#FEFAE0;strokeColor=#DDA15E;" parent="Ks41ul4XoMLJgPUPEkn8-480" vertex="1"><mxGeometry x="42" width="148" height="30" as="geometry"><mxRectangle width="148" height="30" as="alternateBounds"/></mxGeometry></mxCell><mxCell id="Ks41ul4XoMLJgPUPEkn8-483" style="shape=partialRectangle;html=1;whiteSpace=wrap;collapsible=0;dropTarget=0;pointerEvents=1;fillColor=none;top=0;left=0;bottom=0;right=0;points=[[0,0.5],[1,0.5]];portConstraint=eastwest;rounded=1;shadow=1;sketch=1;labelBackgroundColor=none;fontColor=#FEFAE0;strokeColor=#DDA15E;" parent="Ks41ul4XoMLJgPUPEkn8-470" vertex="1"><mxGeometry y="150" width="190" height="30" as="geometry"/></mxCell><mxCell id="Ks41ul4XoMLJgPUPEkn8-484" value="4" style="shape=partialRectangle;html=1;whiteSpace=wrap;connectable=0;fillColor=none;top=0;left=0;bottom=0;right=0;overflow=hidden;pointerEvents=1;rounded=1;shadow=1;sketch=1;labelBackgroundColor=none;fontColor=#FEFAE0;strokeColor=#DDA15E;" parent="Ks41ul4XoMLJgPUPEkn8-483" vertex="1"><mxGeometry width="42" height="30" as="geometry"><mxRectangle width="42" height="30" as="alternateBounds"/></mxGeometry></mxCell><mxCell id="Ks41ul4XoMLJgPUPEkn8-485" value="property_type : str" style="shape=partialRectangle;html=1;whiteSpace=wrap;connectable=0;fillColor=none;top=0;left=0;bottom=0;right=0;align=left;spacingLeft=6;overflow=hidden;pointerEvents=1;rounded=1;shadow=1;sketch=1;labelBackgroundColor=none;fontColor=#FEFAE0;strokeColor=#DDA15E;" parent="Ks41ul4XoMLJgPUPEkn8-483" vertex="1"><mxGeometry x="42" width="148" height="30" as="geometry"><mxRectangle width="148" height="30" as="alternateBounds"/></mxGeometry></mxCell><mxCell id="Ks41ul4XoMLJgPUPEkn8-486" style="shape=partialRectangle;html=1;whiteSpace=wrap;collapsible=0;dropTarget=0;pointerEvents=1;fillColor=none;top=0;left=0;bottom=0;right=0;points=[[0,0.5],[1,0.5]];portConstraint=eastwest;rounded=1;shadow=1;sketch=1;labelBackgroundColor=none;fontColor=#FEFAE0;strokeColor=#DDA15E;" parent="Ks41ul4XoMLJgPUPEkn8-470" vertex="1"><mxGeometry y="180" width="190" height="30" as="geometry"/></mxCell><mxCell id="Ks41ul4XoMLJgPUPEkn8-487" value="5" style="shape=partialRectangle;html=1;whiteSpace=wrap;connectable=0;fillColor=none;top=0;left=0;bottom=0;right=0;overflow=hidden;pointerEvents=1;rounded=1;shadow=1;sketch=1;labelBackgroundColor=none;fontColor=#FEFAE0;strokeColor=#DDA15E;" parent="Ks41ul4XoMLJgPUPEkn8-486" vertex="1"><mxGeometry width="42" height="30" as="geometry"><mxRectangle width="42" height="30" as="alternateBounds"/></mxGeometry></mxCell><mxCell id="Ks41ul4XoMLJgPUPEkn8-488" value="status : str" style="shape=partialRectangle;html=1;whiteSpace=wrap;connectable=0;fillColor=none;top=0;left=0;bottom=0;right=0;align=left;spacingLeft=6;overflow=hidden;pointerEvents=1;rounded=1;shadow=1;sketch=1;labelBackgroundColor=none;fontColor=#FEFAE0;strokeColor=#DDA15E;" parent="Ks41ul4XoMLJgPUPEkn8-486" vertex="1"><mxGeometry x="42" width="148" height="30" as="geometry"><mxRectangle width="148" height="30" as="alternateBounds"/></mxGeometry></mxCell><mxCell id="Ks41ul4XoMLJgPUPEkn8-489" style="shape=partialRectangle;html=1;whiteSpace=wrap;collapsible=0;dropTarget=0;pointerEvents=1;fillColor=none;top=0;left=0;bottom=0;right=0;points=[[0,0.5],[1,0.5]];portConstraint=eastwest;rounded=1;shadow=1;sketch=1;labelBackgroundColor=none;fontColor=#FEFAE0;strokeColor=#DDA15E;" parent="Ks41ul4XoMLJgPUPEkn8-470" vertex="1"><mxGeometry y="210" width="190" height="30" as="geometry"/></mxCell><mxCell id="Ks41ul4XoMLJgPUPEkn8-490" value="6" style="shape=partialRectangle;html=1;whiteSpace=wrap;connectable=0;fillColor=none;top=0;left=0;bottom=0;right=0;overflow=hidden;pointerEvents=1;rounded=1;shadow=1;sketch=1;labelBackgroundColor=none;fontColor=#FEFAE0;strokeColor=#DDA15E;" parent="Ks41ul4XoMLJgPUPEkn8-489" vertex="1"><mxGeometry width="42" height="30" as="geometry"><mxRectangle width="42" height="30" as="alternateBounds"/></mxGeometry></mxCell><mxCell id="Ks41ul4XoMLJgPUPEkn8-491" value="wage : str" style="shape=partialRectangle;html=1;whiteSpace=wrap;connectable=0;fillColor=none;top=0;left=0;bottom=0;right=0;align=left;spacingLeft=6;overflow=hidden;pointerEvents=1;rounded=1;shadow=1;sketch=1;labelBackgroundColor=none;fontColor=#FEFAE0;strokeColor=#DDA15E;" parent="Ks41ul4XoMLJgPUPEkn8-489" vertex="1"><mxGeometry x="42" width="148" height="30" as="geometry"><mxRectangle width="148" height="30" as="alternateBounds"/></mxGeometry></mxCell><mxCell id="Ks41ul4XoMLJgPUPEkn8-492" style="shape=partialRectangle;html=1;whiteSpace=wrap;collapsible=0;dropTarget=0;pointerEvents=1;fillColor=none;top=0;left=0;bottom=0;right=0;points=[[0,0.5],[1,0.5]];portConstraint=eastwest;rounded=1;shadow=1;sketch=1;labelBackgroundColor=none;fontColor=#FEFAE0;strokeColor=#DDA15E;" parent="Ks41ul4XoMLJgPUPEkn8-470" vertex="1"><mxGeometry y="240" width="190" height="30" as="geometry"/></mxCell><mxCell id="Ks41ul4XoMLJgPUPEkn8-493" value="7" style="shape=partialRectangle;html=1;whiteSpace=wrap;connectable=0;fillColor=none;top=0;left=0;bottom=0;right=0;overflow=hidden;pointerEvents=1;rounded=1;shadow=1;sketch=1;labelBackgroundColor=none;fontColor=#FEFAE0;strokeColor=#DDA15E;" parent="Ks41ul4XoMLJgPUPEkn8-492" vertex="1"><mxGeometry width="42" height="30" as="geometry"><mxRectangle width="42" height="30" as="alternateBounds"/></mxGeometry></mxCell><mxCell id="Ks41ul4XoMLJgPUPEkn8-494" value="photos_folder : str" style="shape=partialRectangle;html=1;whiteSpace=wrap;connectable=0;fillColor=none;top=0;left=0;bottom=0;right=0;align=left;spacingLeft=6;overflow=hidden;pointerEvents=1;rounded=1;shadow=1;sketch=1;labelBackgroundColor=none;fontColor=#FEFAE0;strokeColor=#DDA15E;" parent="Ks41ul4XoMLJgPUPEkn8-492" vertex="1"><mxGeometry x="42" width="148" height="30" as="geometry"><mxRectangle width="148" height="30" as="alternateBounds"/></mxGeometry></mxCell><mxCell id="Ks41ul4XoMLJgPUPEkn8-495" style="shape=partialRectangle;html=1;whiteSpace=wrap;collapsible=0;dropTarget=0;pointerEvents=1;fillColor=none;top=0;left=0;bottom=0;right=0;points=[[0,0.5],[1,0.5]];portConstraint=eastwest;rounded=1;shadow=1;sketch=1;labelBackgroundColor=none;fontColor=#FEFAE0;strokeColor=#DDA15E;" parent="Ks41ul4XoMLJgPUPEkn8-470" vertex="1"><mxGeometry y="270" width="190" height="30" as="geometry"/></mxCell><mxCell id="Ks41ul4XoMLJgPUPEkn8-496" value="9" style="shape=partialRectangle;html=1;whiteSpace=wrap;connectable=0;fillColor=none;top=0;left=0;bottom=0;right=0;overflow=hidden;pointerEvents=1;rounded=1;shadow=1;sketch=1;labelBackgroundColor=none;fontColor=#FEFAE0;strokeColor=#DDA15E;" parent="Ks41ul4XoMLJgPUPEkn8-495" vertex="1"><mxGeometry width="42" height="30" as="geometry"><mxRectangle width="42" height="30" as="alternateBounds"/></mxGeometry></mxCell><mxCell id="Ks41ul4XoMLJgPUPEkn8-497" value="location : str" style="shape=partialRectangle;html=1;whiteSpace=wrap;connectable=0;fillColor=none;top=0;left=0;bottom=0;right=0;align=left;spacingLeft=6;overflow=hidden;pointerEvents=1;rounded=1;shadow=1;sketch=1;labelBackgroundColor=none;fontColor=#FEFAE0;strokeColor=#DDA15E;" parent="Ks41ul4XoMLJgPUPEkn8-495" vertex="1"><mxGeometry x="42" width="148" height="30" as="geometry"><mxRectangle width="148" height="30" as="alternateBounds"/></mxGeometry></mxCell><mxCell id="Ks41ul4XoMLJgPUPEkn8-498" value="" style="shape=actor;whiteSpace=wrap;html=1;strokeColor=#DDA15E;rounded=1;shadow=1;sketch=1;labelBackgroundColor=none;fontColor=#FEFAE0;fillColor=#BC6C25;" parent="1" vertex="1"><mxGeometry x="1630" y="100" width="40" height="60" as="geometry"/></mxCell><mxCell id="Ks41ul4XoMLJgPUPEkn8-499" value="Man_force" style="shape=table;startSize=30;container=1;collapsible=0;childLayout=tableLayout;fixedRows=1;rowLines=0;fontStyle=1;align=center;pointerEvents=1;rounded=1;swimlaneFillColor=none;strokeColor=#DDA15E;shadow=1;labelBackgroundColor=none;labelBorderColor=none;sketch=1;fontColor=#FEFAE0;fillColor=#BC6C25;" parent="1" vertex="1"><mxGeometry x="2120" y="160" width="180" height="240" as="geometry"/></mxCell><mxCell id="Ks41ul4XoMLJgPUPEkn8-500" value="" style="shape=partialRectangle;html=1;whiteSpace=wrap;collapsible=0;dropTarget=0;pointerEvents=1;fillColor=none;top=0;left=0;bottom=1;right=0;points=[[0,0.5],[1,0.5]];portConstraint=eastwest;strokeColor=#DDA15E;rounded=1;shadow=1;sketch=1;labelBackgroundColor=none;fontColor=#FEFAE0;" parent="Ks41ul4XoMLJgPUPEkn8-499" vertex="1"><mxGeometry y="30" width="180" height="30" as="geometry"/></mxCell><mxCell id="Ks41ul4XoMLJgPUPEkn8-501" value="PK" style="shape=partialRectangle;html=1;whiteSpace=wrap;connectable=0;fillColor=none;top=0;left=0;bottom=0;right=0;overflow=hidden;pointerEvents=1;strokeColor=#DDA15E;rounded=1;shadow=1;sketch=1;labelBackgroundColor=none;fontColor=#FEFAE0;" parent="Ks41ul4XoMLJgPUPEkn8-500" vertex="1"><mxGeometry width="40" height="30" as="geometry"><mxRectangle width="40" height="30" as="alternateBounds"/></mxGeometry></mxCell><mxCell id="Ks41ul4XoMLJgPUPEkn8-502" value="Id" style="shape=partialRectangle;html=1;whiteSpace=wrap;connectable=0;fillColor=none;top=0;left=0;bottom=0;right=0;align=left;spacingLeft=6;overflow=hidden;pointerEvents=1;strokeColor=#DDA15E;rounded=1;shadow=1;sketch=1;labelBackgroundColor=none;fontColor=#FEFAE0;" parent="Ks41ul4XoMLJgPUPEkn8-500" vertex="1"><mxGeometry x="40" width="140" height="30" as="geometry"><mxRectangle width="140" height="30" as="alternateBounds"/></mxGeometry></mxCell><mxCell id="Ks41ul4XoMLJgPUPEkn8-503" value="" style="shape=partialRectangle;html=1;whiteSpace=wrap;collapsible=0;dropTarget=0;pointerEvents=1;fillColor=none;top=0;left=0;bottom=0;right=0;points=[[0,0.5],[1,0.5]];portConstraint=eastwest;strokeColor=#DDA15E;rounded=1;shadow=1;sketch=1;labelBackgroundColor=none;fontColor=#FEFAE0;" parent="Ks41ul4XoMLJgPUPEkn8-499" vertex="1"><mxGeometry y="60" width="180" height="30" as="geometry"/></mxCell><mxCell id="Ks41ul4XoMLJgPUPEkn8-504" value="2" style="shape=partialRectangle;html=1;whiteSpace=wrap;connectable=0;fillColor=none;top=0;left=0;bottom=0;right=0;overflow=hidden;pointerEvents=1;strokeColor=#DDA15E;rounded=1;shadow=1;sketch=1;labelBackgroundColor=none;fontColor=#FEFAE0;" parent="Ks41ul4XoMLJgPUPEkn8-503" vertex="1"><mxGeometry width="40" height="30" as="geometry"><mxRectangle width="40" height="30" as="alternateBounds"/></mxGeometry></mxCell><mxCell id="Ks41ul4XoMLJgPUPEkn8-505" value="no_of_carpenters : int" style="shape=partialRectangle;html=1;whiteSpace=wrap;connectable=0;fillColor=none;top=0;left=0;bottom=0;right=0;align=left;spacingLeft=6;overflow=hidden;pointerEvents=1;strokeColor=#DDA15E;rounded=1;shadow=1;sketch=1;labelBackgroundColor=none;fontColor=#FEFAE0;" parent="Ks41ul4XoMLJgPUPEkn8-503" vertex="1"><mxGeometry x="40" width="140" height="30" as="geometry"><mxRectangle width="140" height="30" as="alternateBounds"/></mxGeometry></mxCell><mxCell id="Ks41ul4XoMLJgPUPEkn8-506" value="" style="shape=partialRectangle;html=1;whiteSpace=wrap;collapsible=0;dropTarget=0;pointerEvents=1;fillColor=none;top=0;left=0;bottom=0;right=0;points=[[0,0.5],[1,0.5]];portConstraint=eastwest;strokeColor=#DDA15E;rounded=1;shadow=1;sketch=1;labelBackgroundColor=none;fontColor=#FEFAE0;" parent="Ks41ul4XoMLJgPUPEkn8-499" vertex="1"><mxGeometry y="90" width="180" height="30" as="geometry"/></mxCell><mxCell id="Ks41ul4XoMLJgPUPEkn8-507" value="3" style="shape=partialRectangle;html=1;whiteSpace=wrap;connectable=0;fillColor=none;top=0;left=0;bottom=0;right=0;overflow=hidden;pointerEvents=1;strokeColor=#DDA15E;rounded=1;shadow=1;sketch=1;labelBackgroundColor=none;fontColor=#FEFAE0;" parent="Ks41ul4XoMLJgPUPEkn8-506" vertex="1"><mxGeometry width="40" height="30" as="geometry"><mxRectangle width="40" height="30" as="alternateBounds"/></mxGeometry></mxCell><mxCell id="Ks41ul4XoMLJgPUPEkn8-508" value="no_of_builders : int" style="shape=partialRectangle;html=1;whiteSpace=wrap;connectable=0;fillColor=none;top=0;left=0;bottom=0;right=0;align=left;spacingLeft=6;overflow=hidden;pointerEvents=1;strokeColor=#DDA15E;rounded=1;shadow=1;sketch=1;labelBackgroundColor=none;fontColor=#FEFAE0;" parent="Ks41ul4XoMLJgPUPEkn8-506" vertex="1"><mxGeometry x="40" width="140" height="30" as="geometry"><mxRectangle width="140" height="30" as="alternateBounds"/></mxGeometry></mxCell><mxCell id="Ks41ul4XoMLJgPUPEkn8-509" style="shape=partialRectangle;html=1;whiteSpace=wrap;collapsible=0;dropTarget=0;pointerEvents=1;fillColor=none;top=0;left=0;bottom=0;right=0;points=[[0,0.5],[1,0.5]];portConstraint=eastwest;strokeColor=#DDA15E;rounded=1;shadow=1;sketch=1;labelBackgroundColor=none;fontColor=#FEFAE0;" parent="Ks41ul4XoMLJgPUPEkn8-499" vertex="1"><mxGeometry y="120" width="180" height="30" as="geometry"/></mxCell><mxCell id="Ks41ul4XoMLJgPUPEkn8-510" value="4" style="shape=partialRectangle;html=1;whiteSpace=wrap;connectable=0;fillColor=none;top=0;left=0;bottom=0;right=0;overflow=hidden;pointerEvents=1;strokeColor=#DDA15E;rounded=1;shadow=1;sketch=1;labelBackgroundColor=none;fontColor=#FEFAE0;" parent="Ks41ul4XoMLJgPUPEkn8-509" vertex="1"><mxGeometry width="40" height="30" as="geometry"><mxRectangle width="40" height="30" as="alternateBounds"/></mxGeometry></mxCell><mxCell id="Ks41ul4XoMLJgPUPEkn8-511" value="no_of_electricians : int" style="shape=partialRectangle;html=1;whiteSpace=wrap;connectable=0;fillColor=none;top=0;left=0;bottom=0;right=0;align=left;spacingLeft=6;overflow=hidden;pointerEvents=1;strokeColor=#DDA15E;rounded=1;shadow=1;sketch=1;labelBackgroundColor=none;fontColor=#FEFAE0;" parent="Ks41ul4XoMLJgPUPEkn8-509" vertex="1"><mxGeometry x="40" width="140" height="30" as="geometry"><mxRectangle width="140" height="30" as="alternateBounds"/></mxGeometry></mxCell><mxCell id="Ks41ul4XoMLJgPUPEkn8-512" style="shape=partialRectangle;html=1;whiteSpace=wrap;collapsible=0;dropTarget=0;pointerEvents=1;fillColor=none;top=0;left=0;bottom=0;right=0;points=[[0,0.5],[1,0.5]];portConstraint=eastwest;strokeColor=#DDA15E;rounded=1;shadow=1;sketch=1;labelBackgroundColor=none;fontColor=#FEFAE0;" parent="Ks41ul4XoMLJgPUPEkn8-499" vertex="1"><mxGeometry y="150" width="180" height="30" as="geometry"/></mxCell><mxCell id="Ks41ul4XoMLJgPUPEkn8-513" value="5" style="shape=partialRectangle;html=1;whiteSpace=wrap;connectable=0;fillColor=none;top=0;left=0;bottom=0;right=0;overflow=hidden;pointerEvents=1;strokeColor=#DDA15E;rounded=1;shadow=1;sketch=1;labelBackgroundColor=none;fontColor=#FEFAE0;" parent="Ks41ul4XoMLJgPUPEkn8-512" vertex="1"><mxGeometry width="40" height="30" as="geometry"><mxRectangle width="40" height="30" as="alternateBounds"/></mxGeometry></mxCell><mxCell id="Ks41ul4XoMLJgPUPEkn8-514" value="no_of_plumbers : int" style="shape=partialRectangle;html=1;whiteSpace=wrap;connectable=0;fillColor=none;top=0;left=0;bottom=0;right=0;align=left;spacingLeft=6;overflow=hidden;pointerEvents=1;strokeColor=#DDA15E;rounded=1;shadow=1;sketch=1;labelBackgroundColor=none;fontColor=#FEFAE0;" parent="Ks41ul4XoMLJgPUPEkn8-512" vertex="1"><mxGeometry x="40" width="140" height="30" as="geometry"><mxRectangle width="140" height="30" as="alternateBounds"/></mxGeometry></mxCell><mxCell id="Ks41ul4XoMLJgPUPEkn8-515" style="shape=partialRectangle;html=1;whiteSpace=wrap;collapsible=0;dropTarget=0;pointerEvents=1;fillColor=none;top=0;left=0;bottom=0;right=0;points=[[0,0.5],[1,0.5]];portConstraint=eastwest;strokeColor=#DDA15E;rounded=1;shadow=1;sketch=1;labelBackgroundColor=none;fontColor=#FEFAE0;" parent="Ks41ul4XoMLJgPUPEkn8-499" vertex="1"><mxGeometry y="180" width="180" height="30" as="geometry"/></mxCell><mxCell id="Ks41ul4XoMLJgPUPEkn8-516" value="6" style="shape=partialRectangle;html=1;whiteSpace=wrap;connectable=0;fillColor=none;top=0;left=0;bottom=0;right=0;overflow=hidden;pointerEvents=1;strokeColor=#DDA15E;rounded=1;shadow=1;sketch=1;labelBackgroundColor=none;fontColor=#FEFAE0;" parent="Ks41ul4XoMLJgPUPEkn8-515" vertex="1"><mxGeometry width="40" height="30" as="geometry"><mxRectangle width="40" height="30" as="alternateBounds"/></mxGeometry></mxCell><mxCell id="Ks41ul4XoMLJgPUPEkn8-517" value="no_of_painters : int" style="shape=partialRectangle;html=1;whiteSpace=wrap;connectable=0;fillColor=none;top=0;left=0;bottom=0;right=0;align=left;spacingLeft=6;overflow=hidden;pointerEvents=1;strokeColor=#DDA15E;rounded=1;shadow=1;sketch=1;labelBackgroundColor=none;fontColor=#FEFAE0;" parent="Ks41ul4XoMLJgPUPEkn8-515" vertex="1"><mxGeometry x="40" width="140" height="30" as="geometry"><mxRectangle width="140" height="30" as="alternateBounds"/></mxGeometry></mxCell><mxCell id="Ks41ul4XoMLJgPUPEkn8-518" style="shape=partialRectangle;html=1;whiteSpace=wrap;collapsible=0;dropTarget=0;pointerEvents=1;fillColor=none;top=0;left=0;bottom=0;right=0;points=[[0,0.5],[1,0.5]];portConstraint=eastwest;strokeColor=#DDA15E;rounded=1;shadow=1;sketch=1;labelBackgroundColor=none;fontColor=#FEFAE0;" parent="Ks41ul4XoMLJgPUPEkn8-499" vertex="1"><mxGeometry y="210" width="180" height="30" as="geometry"/></mxCell><mxCell id="Ks41ul4XoMLJgPUPEkn8-519" value="7" style="shape=partialRectangle;html=1;whiteSpace=wrap;connectable=0;fillColor=none;top=0;left=0;bottom=0;right=0;overflow=hidden;pointerEvents=1;strokeColor=#DDA15E;rounded=1;shadow=1;sketch=1;labelBackgroundColor=none;fontColor=#FEFAE0;" parent="Ks41ul4XoMLJgPUPEkn8-518" vertex="1"><mxGeometry width="40" height="30" as="geometry"><mxRectangle width="40" height="30" as="alternateBounds"/></mxGeometry></mxCell><mxCell id="Ks41ul4XoMLJgPUPEkn8-520" value="no_of_blacksmiths : int" style="shape=partialRectangle;html=1;whiteSpace=wrap;connectable=0;fillColor=none;top=0;left=0;bottom=0;right=0;align=left;spacingLeft=6;overflow=hidden;pointerEvents=1;strokeColor=#DDA15E;rounded=1;shadow=1;sketch=1;labelBackgroundColor=none;fontColor=#FEFAE0;" parent="Ks41ul4XoMLJgPUPEkn8-518" vertex="1"><mxGeometry x="40" width="140" height="30" as="geometry"><mxRectangle width="140" height="30" as="alternateBounds"/></mxGeometry></mxCell><mxCell id="Ks41ul4XoMLJgPUPEkn8-521" value="Employee" style="shape=table;startSize=30;container=1;collapsible=0;childLayout=tableLayout;fixedRows=1;rowLines=0;fontStyle=1;align=center;pointerEvents=1;strokeColor=#DDA15E;rounded=1;swimlaneFillColor=none;shadow=1;labelBackgroundColor=none;labelBorderColor=none;sketch=1;fontColor=#FEFAE0;fillColor=#BC6C25;" parent="1" vertex="1"><mxGeometry x="1260" y="160" width="180" height="150" as="geometry"/></mxCell><mxCell id="Ks41ul4XoMLJgPUPEkn8-522" value="" style="shape=partialRectangle;html=1;whiteSpace=wrap;collapsible=0;dropTarget=0;pointerEvents=1;fillColor=none;top=0;left=0;bottom=1;right=0;points=[[0,0.5],[1,0.5]];portConstraint=eastwest;strokeColor=#DDA15E;rounded=1;shadow=1;sketch=1;labelBackgroundColor=none;fontColor=#FEFAE0;" parent="Ks41ul4XoMLJgPUPEkn8-521" vertex="1"><mxGeometry y="30" width="180" height="30" as="geometry"/></mxCell><mxCell id="Ks41ul4XoMLJgPUPEkn8-523" value="PK" style="shape=partialRectangle;html=1;whiteSpace=wrap;connectable=0;fillColor=none;top=0;left=0;bottom=0;right=0;overflow=hidden;pointerEvents=1;strokeColor=#DDA15E;rounded=1;shadow=1;sketch=1;labelBackgroundColor=none;fontColor=#FEFAE0;" parent="Ks41ul4XoMLJgPUPEkn8-522" vertex="1"><mxGeometry width="40" height="30" as="geometry"><mxRectangle width="40" height="30" as="alternateBounds"/></mxGeometry></mxCell><mxCell id="Ks41ul4XoMLJgPUPEkn8-524" value="Id" style="shape=partialRectangle;html=1;whiteSpace=wrap;connectable=0;fillColor=none;top=0;left=0;bottom=0;right=0;align=left;spacingLeft=6;overflow=hidden;pointerEvents=1;strokeColor=#DDA15E;rounded=1;shadow=1;sketch=1;labelBackgroundColor=none;fontColor=#FEFAE0;" parent="Ks41ul4XoMLJgPUPEkn8-522" vertex="1"><mxGeometry x="40" width="140" height="30" as="geometry"><mxRectangle width="140" height="30" as="alternateBounds"/></mxGeometry></mxCell><mxCell id="Ks41ul4XoMLJgPUPEkn8-525" style="shape=partialRectangle;html=1;whiteSpace=wrap;collapsible=0;dropTarget=0;pointerEvents=1;fillColor=none;top=0;left=0;bottom=1;right=0;points=[[0,0.5],[1,0.5]];portConstraint=eastwest;strokeColor=#DDA15E;rounded=1;shadow=1;sketch=1;labelBackgroundColor=none;fontColor=#FEFAE0;" parent="Ks41ul4XoMLJgPUPEkn8-521" vertex="1"><mxGeometry y="60" width="180" height="30" as="geometry"/></mxCell><mxCell id="Ks41ul4XoMLJgPUPEkn8-526" value="&lt;span style=&quot;font-family: helvetica; font-size: 12px; font-style: normal; font-weight: 400; letter-spacing: normal; text-align: center; text-indent: 0px; text-transform: none; word-spacing: 0px; display: inline; float: none;&quot;&gt;UK&lt;/span&gt;" style="shape=partialRectangle;html=1;whiteSpace=wrap;connectable=0;fillColor=none;top=0;left=0;bottom=0;right=0;overflow=hidden;pointerEvents=1;strokeColor=#DDA15E;rounded=1;shadow=1;sketch=1;labelBackgroundColor=none;fontColor=#FEFAE0;" parent="Ks41ul4XoMLJgPUPEkn8-525" vertex="1"><mxGeometry width="40" height="30" as="geometry"><mxRectangle width="40" height="30" as="alternateBounds"/></mxGeometry></mxCell><mxCell id="Ks41ul4XoMLJgPUPEkn8-527" value="&lt;span style=&quot;font-family: helvetica; font-size: 12px; font-style: normal; font-weight: 400; letter-spacing: normal; text-align: left; text-indent: 0px; text-transform: none; word-spacing: 0px; display: inline; float: none;&quot;&gt;User.Id NOT NULL&lt;/span&gt;" style="shape=partialRectangle;html=1;whiteSpace=wrap;connectable=0;fillColor=none;top=0;left=0;bottom=0;right=0;align=left;spacingLeft=6;overflow=hidden;pointerEvents=1;strokeColor=#DDA15E;rounded=1;shadow=1;sketch=1;labelBackgroundColor=none;fontColor=#FEFAE0;" parent="Ks41ul4XoMLJgPUPEkn8-525" vertex="1"><mxGeometry x="40" width="140" height="30" as="geometry"><mxRectangle width="140" height="30" as="alternateBounds"/></mxGeometry></mxCell><mxCell id="Ks41ul4XoMLJgPUPEkn8-528" value="" style="shape=partialRectangle;html=1;whiteSpace=wrap;collapsible=0;dropTarget=0;pointerEvents=1;fillColor=none;top=0;left=0;bottom=0;right=0;points=[[0,0.5],[1,0.5]];portConstraint=eastwest;strokeColor=#DDA15E;rounded=1;shadow=1;sketch=1;labelBackgroundColor=none;fontColor=#FEFAE0;" parent="Ks41ul4XoMLJgPUPEkn8-521" vertex="1"><mxGeometry y="90" width="180" height="30" as="geometry"/></mxCell><mxCell id="Ks41ul4XoMLJgPUPEkn8-529" value="3" style="shape=partialRectangle;html=1;whiteSpace=wrap;connectable=0;fillColor=none;top=0;left=0;bottom=0;right=0;overflow=hidden;pointerEvents=1;strokeColor=#DDA15E;rounded=1;shadow=1;sketch=1;labelBackgroundColor=none;fontColor=#FEFAE0;" parent="Ks41ul4XoMLJgPUPEkn8-528" vertex="1"><mxGeometry width="40" height="30" as="geometry"><mxRectangle width="40" height="30" as="alternateBounds"/></mxGeometry></mxCell><mxCell id="Ks41ul4XoMLJgPUPEkn8-530" value="salary : str" style="shape=partialRectangle;html=1;whiteSpace=wrap;connectable=0;fillColor=none;top=0;left=0;bottom=0;right=0;align=left;spacingLeft=6;overflow=hidden;pointerEvents=1;strokeColor=#DDA15E;rounded=1;shadow=1;sketch=1;labelBackgroundColor=none;fontColor=#FEFAE0;" parent="Ks41ul4XoMLJgPUPEkn8-528" vertex="1"><mxGeometry x="40" width="140" height="30" as="geometry"><mxRectangle width="140" height="30" as="alternateBounds"/></mxGeometry></mxCell><mxCell id="Ks41ul4XoMLJgPUPEkn8-531" style="shape=partialRectangle;html=1;whiteSpace=wrap;collapsible=0;dropTarget=0;pointerEvents=1;fillColor=none;top=0;left=0;bottom=0;right=0;points=[[0,0.5],[1,0.5]];portConstraint=eastwest;strokeColor=#DDA15E;rounded=1;shadow=1;sketch=1;labelBackgroundColor=none;fontColor=#FEFAE0;" parent="Ks41ul4XoMLJgPUPEkn8-521" vertex="1"><mxGeometry y="120" width="180" height="30" as="geometry"/></mxCell><mxCell id="Ks41ul4XoMLJgPUPEkn8-532" value="4" style="shape=partialRectangle;html=1;whiteSpace=wrap;connectable=0;fillColor=none;top=0;left=0;bottom=0;right=0;overflow=hidden;pointerEvents=1;strokeColor=#DDA15E;rounded=1;shadow=1;sketch=1;labelBackgroundColor=none;fontColor=#FEFAE0;" parent="Ks41ul4XoMLJgPUPEkn8-531" vertex="1"><mxGeometry width="40" height="30" as="geometry"><mxRectangle width="40" height="30" as="alternateBounds"/></mxGeometry></mxCell><mxCell id="Ks41ul4XoMLJgPUPEkn8-533" value="role : str" style="shape=partialRectangle;html=1;whiteSpace=wrap;connectable=0;fillColor=none;top=0;left=0;bottom=0;right=0;align=left;spacingLeft=6;overflow=hidden;pointerEvents=1;strokeColor=#DDA15E;rounded=1;shadow=1;sketch=1;labelBackgroundColor=none;fontColor=#FEFAE0;" parent="Ks41ul4XoMLJgPUPEkn8-531" vertex="1"><mxGeometry x="40" width="140" height="30" as="geometry"><mxRectangle width="140" height="30" as="alternateBounds"/></mxGeometry></mxCell><mxCell id="Ks41ul4XoMLJgPUPEkn8-534" value="Blueprints" style="shape=table;startSize=30;container=1;collapsible=0;childLayout=tableLayout;fixedRows=1;rowLines=0;fontStyle=1;align=center;pointerEvents=1;strokeColor=#DDA15E;rounded=1;swimlaneFillColor=none;shadow=1;labelBackgroundColor=none;labelBorderColor=none;sketch=1;fontColor=#FEFAE0;fillColor=#BC6C25;" parent="1" vertex="1"><mxGeometry x="1560" y="500" width="180" height="270" as="geometry"/></mxCell><mxCell id="Ks41ul4XoMLJgPUPEkn8-535" value="" style="shape=partialRectangle;html=1;whiteSpace=wrap;collapsible=0;dropTarget=0;pointerEvents=1;fillColor=none;top=0;left=0;bottom=1;right=0;points=[[0,0.5],[1,0.5]];portConstraint=eastwest;strokeColor=#DDA15E;rounded=1;shadow=1;sketch=1;labelBackgroundColor=none;fontColor=#FEFAE0;" parent="Ks41ul4XoMLJgPUPEkn8-534" vertex="1"><mxGeometry y="30" width="180" height="30" as="geometry"/></mxCell><mxCell id="Ks41ul4XoMLJgPUPEkn8-536" value="PK" style="shape=partialRectangle;html=1;whiteSpace=wrap;connectable=0;fillColor=none;top=0;left=0;bottom=0;right=0;overflow=hidden;pointerEvents=1;strokeColor=#DDA15E;rounded=1;shadow=1;sketch=1;labelBackgroundColor=none;fontColor=#FEFAE0;" parent="Ks41ul4XoMLJgPUPEkn8-535" vertex="1"><mxGeometry width="40" height="30" as="geometry"><mxRectangle width="40" height="30" as="alternateBounds"/></mxGeometry></mxCell><mxCell id="Ks41ul4XoMLJgPUPEkn8-537" value="Id" style="shape=partialRectangle;html=1;whiteSpace=wrap;connectable=0;fillColor=none;top=0;left=0;bottom=0;right=0;align=left;spacingLeft=6;overflow=hidden;pointerEvents=1;strokeColor=#DDA15E;rounded=1;shadow=1;sketch=1;labelBackgroundColor=none;fontColor=#FEFAE0;" parent="Ks41ul4XoMLJgPUPEkn8-535" vertex="1"><mxGeometry x="40" width="140" height="30" as="geometry"><mxRectangle width="140" height="30" as="alternateBounds"/></mxGeometry></mxCell><mxCell id="Ks41ul4XoMLJgPUPEkn8-538" style="shape=partialRectangle;html=1;whiteSpace=wrap;collapsible=0;dropTarget=0;pointerEvents=1;fillColor=none;top=0;left=0;bottom=1;right=0;points=[[0,0.5],[1,0.5]];portConstraint=eastwest;strokeColor=#DDA15E;rounded=1;shadow=1;sketch=1;labelBackgroundColor=none;fontColor=#FEFAE0;" parent="Ks41ul4XoMLJgPUPEkn8-534" vertex="1"><mxGeometry y="60" width="180" height="30" as="geometry"/></mxCell><mxCell id="Ks41ul4XoMLJgPUPEkn8-539" value="FK" style="shape=partialRectangle;html=1;whiteSpace=wrap;connectable=0;fillColor=none;top=0;left=0;bottom=0;right=0;overflow=hidden;pointerEvents=1;strokeColor=#DDA15E;rounded=1;shadow=1;sketch=1;labelBackgroundColor=none;fontColor=#FEFAE0;" parent="Ks41ul4XoMLJgPUPEkn8-538" vertex="1"><mxGeometry width="40" height="30" as="geometry"><mxRectangle width="40" height="30" as="alternateBounds"/></mxGeometry></mxCell><mxCell id="Ks41ul4XoMLJgPUPEkn8-540" value="Employee.Id" style="shape=partialRectangle;html=1;whiteSpace=wrap;connectable=0;fillColor=none;top=0;left=0;bottom=0;right=0;align=left;spacingLeft=6;overflow=hidden;pointerEvents=1;strokeColor=#DDA15E;rounded=1;shadow=1;sketch=1;labelBackgroundColor=none;fontColor=#FEFAE0;" parent="Ks41ul4XoMLJgPUPEkn8-538" vertex="1"><mxGeometry x="40" width="140" height="30" as="geometry"><mxRectangle width="140" height="30" as="alternateBounds"/></mxGeometry></mxCell><mxCell id="Ks41ul4XoMLJgPUPEkn8-541" style="shape=partialRectangle;html=1;whiteSpace=wrap;collapsible=0;dropTarget=0;pointerEvents=1;fillColor=none;top=0;left=0;bottom=1;right=0;points=[[0,0.5],[1,0.5]];portConstraint=eastwest;strokeColor=#DDA15E;rounded=1;shadow=1;sketch=1;labelBackgroundColor=none;fontColor=#FEFAE0;" parent="Ks41ul4XoMLJgPUPEkn8-534" vertex="1"><mxGeometry y="90" width="180" height="30" as="geometry"/></mxCell><mxCell id="Ks41ul4XoMLJgPUPEkn8-542" value="FK" style="shape=partialRectangle;html=1;whiteSpace=wrap;connectable=0;fillColor=none;top=0;left=0;bottom=0;right=0;overflow=hidden;pointerEvents=1;strokeColor=#DDA15E;rounded=1;shadow=1;sketch=1;labelBackgroundColor=none;fontColor=#FEFAE0;" parent="Ks41ul4XoMLJgPUPEkn8-541" vertex="1"><mxGeometry width="40" height="30" as="geometry"><mxRectangle width="40" height="30" as="alternateBounds"/></mxGeometry></mxCell><mxCell id="Ks41ul4XoMLJgPUPEkn8-543" value="Builder.Id" style="shape=partialRectangle;html=1;whiteSpace=wrap;connectable=0;fillColor=none;top=0;left=0;bottom=0;right=0;align=left;spacingLeft=6;overflow=hidden;pointerEvents=1;strokeColor=#DDA15E;rounded=1;shadow=1;sketch=1;labelBackgroundColor=none;fontColor=#FEFAE0;" parent="Ks41ul4XoMLJgPUPEkn8-541" vertex="1"><mxGeometry x="40" width="140" height="30" as="geometry"><mxRectangle width="140" height="30" as="alternateBounds"/></mxGeometry></mxCell><mxCell id="Ks41ul4XoMLJgPUPEkn8-544" value="" style="shape=partialRectangle;html=1;whiteSpace=wrap;collapsible=0;dropTarget=0;pointerEvents=1;fillColor=none;top=0;left=0;bottom=0;right=0;points=[[0,0.5],[1,0.5]];portConstraint=eastwest;strokeColor=#DDA15E;rounded=1;shadow=1;sketch=1;labelBackgroundColor=none;fontColor=#FEFAE0;" parent="Ks41ul4XoMLJgPUPEkn8-534" vertex="1"><mxGeometry y="120" width="180" height="30" as="geometry"/></mxCell><mxCell id="Ks41ul4XoMLJgPUPEkn8-545" value="4" style="shape=partialRectangle;html=1;whiteSpace=wrap;connectable=0;fillColor=none;top=0;left=0;bottom=0;right=0;overflow=hidden;pointerEvents=1;strokeColor=#DDA15E;rounded=1;shadow=1;sketch=1;labelBackgroundColor=none;fontColor=#FEFAE0;" parent="Ks41ul4XoMLJgPUPEkn8-544" vertex="1"><mxGeometry width="40" height="30" as="geometry"><mxRectangle width="40" height="30" as="alternateBounds"/></mxGeometry></mxCell><mxCell id="Ks41ul4XoMLJgPUPEkn8-546" value="type : str" style="shape=partialRectangle;html=1;whiteSpace=wrap;connectable=0;fillColor=none;top=0;left=0;bottom=0;right=0;align=left;spacingLeft=6;overflow=hidden;pointerEvents=1;strokeColor=#DDA15E;rounded=1;shadow=1;sketch=1;labelBackgroundColor=none;fontColor=#FEFAE0;" parent="Ks41ul4XoMLJgPUPEkn8-544" vertex="1"><mxGeometry x="40" width="140" height="30" as="geometry"><mxRectangle width="140" height="30" as="alternateBounds"/></mxGeometry></mxCell><mxCell id="Ks41ul4XoMLJgPUPEkn8-547" value="" style="shape=partialRectangle;html=1;whiteSpace=wrap;collapsible=0;dropTarget=0;pointerEvents=1;fillColor=none;top=0;left=0;bottom=0;right=0;points=[[0,0.5],[1,0.5]];portConstraint=eastwest;strokeColor=#DDA15E;rounded=1;shadow=1;sketch=1;labelBackgroundColor=none;fontColor=#FEFAE0;" parent="Ks41ul4XoMLJgPUPEkn8-534" vertex="1"><mxGeometry y="150" width="180" height="30" as="geometry"/></mxCell><mxCell id="Ks41ul4XoMLJgPUPEkn8-548" value="5" style="shape=partialRectangle;html=1;whiteSpace=wrap;connectable=0;fillColor=none;top=0;left=0;bottom=0;right=0;overflow=hidden;pointerEvents=1;strokeColor=#DDA15E;rounded=1;shadow=1;sketch=1;labelBackgroundColor=none;fontColor=#FEFAE0;" parent="Ks41ul4XoMLJgPUPEkn8-547" vertex="1"><mxGeometry width="40" height="30" as="geometry"><mxRectangle width="40" height="30" as="alternateBounds"/></mxGeometry></mxCell><mxCell id="Ks41ul4XoMLJgPUPEkn8-549" value="progress : float" style="shape=partialRectangle;html=1;whiteSpace=wrap;connectable=0;fillColor=none;top=0;left=0;bottom=0;right=0;align=left;spacingLeft=6;overflow=hidden;pointerEvents=1;strokeColor=#DDA15E;rounded=1;shadow=1;sketch=1;labelBackgroundColor=none;fontColor=#FEFAE0;" parent="Ks41ul4XoMLJgPUPEkn8-547" vertex="1"><mxGeometry x="40" width="140" height="30" as="geometry"><mxRectangle width="140" height="30" as="alternateBounds"/></mxGeometry></mxCell><mxCell id="Ks41ul4XoMLJgPUPEkn8-550" style="shape=partialRectangle;html=1;whiteSpace=wrap;collapsible=0;dropTarget=0;pointerEvents=1;fillColor=none;top=0;left=0;bottom=0;right=0;points=[[0,0.5],[1,0.5]];portConstraint=eastwest;strokeColor=#DDA15E;rounded=1;shadow=1;sketch=1;labelBackgroundColor=none;fontColor=#FEFAE0;" parent="Ks41ul4XoMLJgPUPEkn8-534" vertex="1"><mxGeometry y="180" width="180" height="30" as="geometry"/></mxCell><mxCell id="Ks41ul4XoMLJgPUPEkn8-551" value="6" style="shape=partialRectangle;html=1;whiteSpace=wrap;connectable=0;fillColor=none;top=0;left=0;bottom=0;right=0;overflow=hidden;pointerEvents=1;strokeColor=#DDA15E;rounded=1;shadow=1;sketch=1;labelBackgroundColor=none;fontColor=#FEFAE0;" parent="Ks41ul4XoMLJgPUPEkn8-550" vertex="1"><mxGeometry width="40" height="30" as="geometry"><mxRectangle width="40" height="30" as="alternateBounds"/></mxGeometry></mxCell><mxCell id="Ks41ul4XoMLJgPUPEkn8-552" value="estimate : str" style="shape=partialRectangle;html=1;whiteSpace=wrap;connectable=0;fillColor=none;top=0;left=0;bottom=0;right=0;align=left;spacingLeft=6;overflow=hidden;pointerEvents=1;strokeColor=#DDA15E;rounded=1;shadow=1;sketch=1;labelBackgroundColor=none;fontColor=#FEFAE0;" parent="Ks41ul4XoMLJgPUPEkn8-550" vertex="1"><mxGeometry x="40" width="140" height="30" as="geometry"><mxRectangle width="140" height="30" as="alternateBounds"/></mxGeometry></mxCell><mxCell id="Ks41ul4XoMLJgPUPEkn8-553" style="shape=partialRectangle;html=1;whiteSpace=wrap;collapsible=0;dropTarget=0;pointerEvents=1;fillColor=none;top=0;left=0;bottom=0;right=0;points=[[0,0.5],[1,0.5]];portConstraint=eastwest;strokeColor=#DDA15E;rounded=1;shadow=1;sketch=1;labelBackgroundColor=none;fontColor=#FEFAE0;" parent="Ks41ul4XoMLJgPUPEkn8-534" vertex="1"><mxGeometry y="210" width="180" height="30" as="geometry"/></mxCell><mxCell id="Ks41ul4XoMLJgPUPEkn8-554" value="7" style="shape=partialRectangle;html=1;whiteSpace=wrap;connectable=0;fillColor=none;top=0;left=0;bottom=0;right=0;overflow=hidden;pointerEvents=1;strokeColor=#DDA15E;rounded=1;shadow=1;sketch=1;labelBackgroundColor=none;fontColor=#FEFAE0;" parent="Ks41ul4XoMLJgPUPEkn8-553" vertex="1"><mxGeometry width="40" height="30" as="geometry"><mxRectangle width="40" height="30" as="alternateBounds"/></mxGeometry></mxCell><mxCell id="Ks41ul4XoMLJgPUPEkn8-555" value="plan : photo" style="shape=partialRectangle;html=1;whiteSpace=wrap;connectable=0;fillColor=none;top=0;left=0;bottom=0;right=0;align=left;spacingLeft=6;overflow=hidden;pointerEvents=1;strokeColor=#DDA15E;rounded=1;shadow=1;sketch=1;labelBackgroundColor=none;fontColor=#FEFAE0;" parent="Ks41ul4XoMLJgPUPEkn8-553" vertex="1"><mxGeometry x="40" width="140" height="30" as="geometry"><mxRectangle width="140" height="30" as="alternateBounds"/></mxGeometry></mxCell><mxCell id="Ks41ul4XoMLJgPUPEkn8-556" style="shape=partialRectangle;html=1;whiteSpace=wrap;collapsible=0;dropTarget=0;pointerEvents=1;fillColor=none;top=0;left=0;bottom=0;right=0;points=[[0,0.5],[1,0.5]];portConstraint=eastwest;strokeColor=#DDA15E;rounded=1;shadow=1;sketch=1;labelBackgroundColor=none;fontColor=#FEFAE0;" parent="Ks41ul4XoMLJgPUPEkn8-534" vertex="1"><mxGeometry y="240" width="180" height="30" as="geometry"/></mxCell><mxCell id="Ks41ul4XoMLJgPUPEkn8-557" value="8" style="shape=partialRectangle;html=1;whiteSpace=wrap;connectable=0;fillColor=none;top=0;left=0;bottom=0;right=0;overflow=hidden;pointerEvents=1;strokeColor=#DDA15E;rounded=1;shadow=1;sketch=1;labelBackgroundColor=none;fontColor=#FEFAE0;" parent="Ks41ul4XoMLJgPUPEkn8-556" vertex="1"><mxGeometry width="40" height="30" as="geometry"><mxRectangle width="40" height="30" as="alternateBounds"/></mxGeometry></mxCell><mxCell id="Ks41ul4XoMLJgPUPEkn8-558" value="delivery_time : int" style="shape=partialRectangle;html=1;whiteSpace=wrap;connectable=0;fillColor=none;top=0;left=0;bottom=0;right=0;align=left;spacingLeft=6;overflow=hidden;pointerEvents=1;strokeColor=#DDA15E;rounded=1;shadow=1;sketch=1;labelBackgroundColor=none;fontColor=#FEFAE0;" parent="Ks41ul4XoMLJgPUPEkn8-556" vertex="1"><mxGeometry x="40" width="140" height="30" as="geometry"><mxRectangle width="140" height="30" as="alternateBounds"/></mxGeometry></mxCell><mxCell id="Ks41ul4XoMLJgPUPEkn8-561" value="Bookings" style="shape=table;startSize=30;container=1;collapsible=0;childLayout=tableLayout;fixedRows=1;rowLines=0;fontStyle=1;align=center;pointerEvents=1;strokeColor=#DDA15E;rounded=1;swimlaneFillColor=none;shadow=1;labelBackgroundColor=none;labelBorderColor=none;sketch=1;fontColor=#FEFAE0;fillColor=#BC6C25;" parent="1" vertex="1"><mxGeometry x="1250" y="500" width="180" height="210" as="geometry"/></mxCell><mxCell id="Ks41ul4XoMLJgPUPEkn8-562" value="" style="shape=partialRectangle;html=1;whiteSpace=wrap;collapsible=0;dropTarget=0;pointerEvents=1;fillColor=none;top=0;left=0;bottom=1;right=0;points=[[0,0.5],[1,0.5]];portConstraint=eastwest;strokeColor=#DDA15E;rounded=1;shadow=1;sketch=1;labelBackgroundColor=none;fontColor=#FEFAE0;" parent="Ks41ul4XoMLJgPUPEkn8-561" vertex="1"><mxGeometry y="30" width="180" height="30" as="geometry"/></mxCell><mxCell id="Ks41ul4XoMLJgPUPEkn8-563" value="PK" style="shape=partialRectangle;html=1;whiteSpace=wrap;connectable=0;fillColor=none;top=0;left=0;bottom=0;right=0;overflow=hidden;pointerEvents=1;strokeColor=#DDA15E;rounded=1;shadow=1;sketch=1;labelBackgroundColor=none;fontColor=#FEFAE0;" parent="Ks41ul4XoMLJgPUPEkn8-562" vertex="1"><mxGeometry width="40" height="30" as="geometry"><mxRectangle width="40" height="30" as="alternateBounds"/></mxGeometry></mxCell><mxCell id="Ks41ul4XoMLJgPUPEkn8-564" value="Id" style="shape=partialRectangle;html=1;whiteSpace=wrap;connectable=0;fillColor=none;top=0;left=0;bottom=0;right=0;align=left;spacingLeft=6;overflow=hidden;pointerEvents=1;strokeColor=#DDA15E;rounded=1;shadow=1;sketch=1;labelBackgroundColor=none;fontColor=#FEFAE0;" parent="Ks41ul4XoMLJgPUPEkn8-562" vertex="1"><mxGeometry x="40" width="140" height="30" as="geometry"><mxRectangle width="140" height="30" as="alternateBounds"/></mxGeometry></mxCell><mxCell id="Ks41ul4XoMLJgPUPEkn8-565" style="shape=partialRectangle;html=1;whiteSpace=wrap;collapsible=0;dropTarget=0;pointerEvents=1;fillColor=none;top=0;left=0;bottom=1;right=0;points=[[0,0.5],[1,0.5]];portConstraint=eastwest;strokeColor=#DDA15E;rounded=1;shadow=1;sketch=1;labelBackgroundColor=none;fontColor=#FEFAE0;" parent="Ks41ul4XoMLJgPUPEkn8-561" vertex="1"><mxGeometry y="60" width="180" height="30" as="geometry"/></mxCell><mxCell id="Ks41ul4XoMLJgPUPEkn8-566" value="FK" style="shape=partialRectangle;html=1;whiteSpace=wrap;connectable=0;fillColor=none;top=0;left=0;bottom=0;right=0;overflow=hidden;pointerEvents=1;strokeColor=#DDA15E;rounded=1;shadow=1;sketch=1;labelBackgroundColor=none;fontColor=#FEFAE0;" parent="Ks41ul4XoMLJgPUPEkn8-565" vertex="1"><mxGeometry width="40" height="30" as="geometry"><mxRectangle width="40" height="30" as="alternateBounds"/></mxGeometry></mxCell><mxCell id="Ks41ul4XoMLJgPUPEkn8-567" value="User.Id" style="shape=partialRectangle;html=1;whiteSpace=wrap;connectable=0;fillColor=none;top=0;left=0;bottom=0;right=0;align=left;spacingLeft=6;overflow=hidden;pointerEvents=1;strokeColor=#DDA15E;rounded=1;shadow=1;sketch=1;labelBackgroundColor=none;fontColor=#FEFAE0;" parent="Ks41ul4XoMLJgPUPEkn8-565" vertex="1"><mxGeometry x="40" width="140" height="30" as="geometry"><mxRectangle width="140" height="30" as="alternateBounds"/></mxGeometry></mxCell><mxCell id="Ks41ul4XoMLJgPUPEkn8-568" style="shape=partialRectangle;html=1;whiteSpace=wrap;collapsible=0;dropTarget=0;pointerEvents=1;fillColor=none;top=0;left=0;bottom=1;right=0;points=[[0,0.5],[1,0.5]];portConstraint=eastwest;strokeColor=#DDA15E;rounded=1;shadow=1;sketch=1;labelBackgroundColor=none;fontColor=#FEFAE0;" parent="Ks41ul4XoMLJgPUPEkn8-561" vertex="1"><mxGeometry y="90" width="180" height="30" as="geometry"/></mxCell><mxCell id="Ks41ul4XoMLJgPUPEkn8-569" value="FK" style="shape=partialRectangle;html=1;whiteSpace=wrap;connectable=0;fillColor=none;top=0;left=0;bottom=0;right=0;overflow=hidden;pointerEvents=1;strokeColor=#DDA15E;rounded=1;shadow=1;sketch=1;labelBackgroundColor=none;fontColor=#FEFAE0;" parent="Ks41ul4XoMLJgPUPEkn8-568" vertex="1"><mxGeometry width="40" height="30" as="geometry"><mxRectangle width="40" height="30" as="alternateBounds"/></mxGeometry></mxCell><mxCell id="Ks41ul4XoMLJgPUPEkn8-570" value="blueprint.Id" style="shape=partialRectangle;html=1;whiteSpace=wrap;connectable=0;fillColor=none;top=0;left=0;bottom=0;right=0;align=left;spacingLeft=6;overflow=hidden;pointerEvents=1;strokeColor=#DDA15E;rounded=1;shadow=1;sketch=1;labelBackgroundColor=none;fontColor=#FEFAE0;" parent="Ks41ul4XoMLJgPUPEkn8-568" vertex="1"><mxGeometry x="40" width="140" height="30" as="geometry"><mxRectangle width="140" height="30" as="alternateBounds"/></mxGeometry></mxCell><mxCell id="Ks41ul4XoMLJgPUPEkn8-571" value="" style="shape=partialRectangle;html=1;whiteSpace=wrap;collapsible=0;dropTarget=0;pointerEvents=1;fillColor=none;top=0;left=0;bottom=0;right=0;points=[[0,0.5],[1,0.5]];portConstraint=eastwest;strokeColor=#DDA15E;rounded=1;shadow=1;sketch=1;labelBackgroundColor=none;fontColor=#FEFAE0;" parent="Ks41ul4XoMLJgPUPEkn8-561" vertex="1"><mxGeometry y="120" width="180" height="30" as="geometry"/></mxCell><mxCell id="Ks41ul4XoMLJgPUPEkn8-572" value="4" style="shape=partialRectangle;html=1;whiteSpace=wrap;connectable=0;fillColor=none;top=0;left=0;bottom=0;right=0;overflow=hidden;pointerEvents=1;strokeColor=#DDA15E;rounded=1;shadow=1;sketch=1;labelBackgroundColor=none;fontColor=#FEFAE0;" parent="Ks41ul4XoMLJgPUPEkn8-571" vertex="1"><mxGeometry width="40" height="30" as="geometry"><mxRectangle width="40" height="30" as="alternateBounds"/></mxGeometry></mxCell><mxCell id="Ks41ul4XoMLJgPUPEkn8-573" value="location : str" style="shape=partialRectangle;html=1;whiteSpace=wrap;connectable=0;fillColor=none;top=0;left=0;bottom=0;right=0;align=left;spacingLeft=6;overflow=hidden;pointerEvents=1;strokeColor=#DDA15E;rounded=1;shadow=1;sketch=1;labelBackgroundColor=none;fontColor=#FEFAE0;" parent="Ks41ul4XoMLJgPUPEkn8-571" vertex="1"><mxGeometry x="40" width="140" height="30" as="geometry"><mxRectangle width="140" height="30" as="alternateBounds"/></mxGeometry></mxCell><mxCell id="Ks41ul4XoMLJgPUPEkn8-574" value="" style="shape=partialRectangle;html=1;whiteSpace=wrap;collapsible=0;dropTarget=0;pointerEvents=1;fillColor=none;top=0;left=0;bottom=0;right=0;points=[[0,0.5],[1,0.5]];portConstraint=eastwest;strokeColor=#DDA15E;rounded=1;shadow=1;sketch=1;labelBackgroundColor=none;fontColor=#FEFAE0;" parent="Ks41ul4XoMLJgPUPEkn8-561" vertex="1"><mxGeometry y="150" width="180" height="30" as="geometry"/></mxCell><mxCell id="Ks41ul4XoMLJgPUPEkn8-575" value="5" style="shape=partialRectangle;html=1;whiteSpace=wrap;connectable=0;fillColor=none;top=0;left=0;bottom=0;right=0;overflow=hidden;pointerEvents=1;strokeColor=#DDA15E;rounded=1;shadow=1;sketch=1;labelBackgroundColor=none;fontColor=#FEFAE0;" parent="Ks41ul4XoMLJgPUPEkn8-574" vertex="1"><mxGeometry width="40" height="30" as="geometry"><mxRectangle width="40" height="30" as="alternateBounds"/></mxGeometry></mxCell><mxCell id="Ks41ul4XoMLJgPUPEkn8-576" value="price_quoted" style="shape=partialRectangle;html=1;whiteSpace=wrap;connectable=0;fillColor=none;top=0;left=0;bottom=0;right=0;align=left;spacingLeft=6;overflow=hidden;pointerEvents=1;strokeColor=#DDA15E;rounded=1;shadow=1;sketch=1;labelBackgroundColor=none;fontColor=#FEFAE0;" parent="Ks41ul4XoMLJgPUPEkn8-574" vertex="1"><mxGeometry x="40" width="140" height="30" as="geometry"><mxRectangle width="140" height="30" as="alternateBounds"/></mxGeometry></mxCell><mxCell id="Ks41ul4XoMLJgPUPEkn8-577" style="shape=partialRectangle;html=1;whiteSpace=wrap;collapsible=0;dropTarget=0;pointerEvents=1;fillColor=none;top=0;left=0;bottom=0;right=0;points=[[0,0.5],[1,0.5]];portConstraint=eastwest;strokeColor=#DDA15E;rounded=1;shadow=1;sketch=1;labelBackgroundColor=none;fontColor=#FEFAE0;" parent="Ks41ul4XoMLJgPUPEkn8-561" vertex="1"><mxGeometry y="180" width="180" height="30" as="geometry"/></mxCell><mxCell id="Ks41ul4XoMLJgPUPEkn8-578" value="6" style="shape=partialRectangle;html=1;whiteSpace=wrap;connectable=0;fillColor=none;top=0;left=0;bottom=0;right=0;overflow=hidden;pointerEvents=1;strokeColor=#DDA15E;rounded=1;shadow=1;sketch=1;labelBackgroundColor=none;fontColor=#FEFAE0;" parent="Ks41ul4XoMLJgPUPEkn8-577" vertex="1"><mxGeometry width="40" height="30" as="geometry"><mxRectangle width="40" height="30" as="alternateBounds"/></mxGeometry></mxCell><mxCell id="Ks41ul4XoMLJgPUPEkn8-579" value="plan : photo" style="shape=partialRectangle;html=1;whiteSpace=wrap;connectable=0;fillColor=none;top=0;left=0;bottom=0;right=0;align=left;spacingLeft=6;overflow=hidden;pointerEvents=1;strokeColor=#DDA15E;rounded=1;shadow=1;sketch=1;labelBackgroundColor=none;fontColor=#FEFAE0;" parent="Ks41ul4XoMLJgPUPEkn8-577" vertex="1"><mxGeometry x="40" width="140" height="30" as="geometry"><mxRectangle width="140" height="30" as="alternateBounds"/></mxGeometry></mxCell><mxCell id="Ks41ul4XoMLJgPUPEkn8-581" value="Finance" style="shape=table;startSize=30;container=1;collapsible=0;childLayout=tableLayout;fixedRows=1;rowLines=0;fontStyle=1;align=center;pointerEvents=1;rounded=1;strokeColor=#DDA15E;swimlaneFillColor=none;shadow=1;labelBackgroundColor=none;labelBorderColor=none;sketch=1;fontColor=#FEFAE0;fillColor=#BC6C25;" parent="1" vertex="1"><mxGeometry x="1835" y="500" width="180" height="150" as="geometry"/></mxCell><mxCell id="Ks41ul4XoMLJgPUPEkn8-582" value="" style="shape=partialRectangle;html=1;whiteSpace=wrap;collapsible=0;dropTarget=0;pointerEvents=1;fillColor=none;top=0;left=0;bottom=1;right=0;points=[[0,0.5],[1,0.5]];portConstraint=eastwest;rounded=1;strokeColor=#DDA15E;shadow=1;sketch=1;labelBackgroundColor=none;fontColor=#FEFAE0;" parent="Ks41ul4XoMLJgPUPEkn8-581" vertex="1"><mxGeometry y="30" width="180" height="30" as="geometry"/></mxCell><mxCell id="Ks41ul4XoMLJgPUPEkn8-583" value="PK" style="shape=partialRectangle;html=1;whiteSpace=wrap;connectable=0;fillColor=none;top=0;left=0;bottom=0;right=0;overflow=hidden;pointerEvents=1;rounded=1;strokeColor=#DDA15E;shadow=1;sketch=1;labelBackgroundColor=none;fontColor=#FEFAE0;" parent="Ks41ul4XoMLJgPUPEkn8-582" vertex="1"><mxGeometry width="40" height="30" as="geometry"><mxRectangle width="40" height="30" as="alternateBounds"/></mxGeometry></mxCell><mxCell id="Ks41ul4XoMLJgPUPEkn8-584" value="Id" style="shape=partialRectangle;html=1;whiteSpace=wrap;connectable=0;fillColor=none;top=0;left=0;bottom=0;right=0;align=left;spacingLeft=6;overflow=hidden;pointerEvents=1;rounded=1;strokeColor=#DDA15E;shadow=1;sketch=1;labelBackgroundColor=none;fontColor=#FEFAE0;" parent="Ks41ul4XoMLJgPUPEkn8-582" vertex="1"><mxGeometry x="40" width="140" height="30" as="geometry"><mxRectangle width="140" height="30" as="alternateBounds"/></mxGeometry></mxCell><mxCell id="Ks41ul4XoMLJgPUPEkn8-585" style="shape=partialRectangle;html=1;whiteSpace=wrap;collapsible=0;dropTarget=0;pointerEvents=1;fillColor=none;top=0;left=0;bottom=1;right=0;points=[[0,0.5],[1,0.5]];portConstraint=eastwest;rounded=1;strokeColor=#DDA15E;shadow=1;sketch=1;labelBackgroundColor=none;fontColor=#FEFAE0;" parent="Ks41ul4XoMLJgPUPEkn8-581" vertex="1"><mxGeometry y="60" width="180" height="30" as="geometry"/></mxCell><mxCell id="Ks41ul4XoMLJgPUPEkn8-586" value="UK" style="shape=partialRectangle;html=1;whiteSpace=wrap;connectable=0;fillColor=none;top=0;left=0;bottom=0;right=0;overflow=hidden;pointerEvents=1;rounded=1;strokeColor=#DDA15E;shadow=1;sketch=1;labelBackgroundColor=none;fontColor=#FEFAE0;" parent="Ks41ul4XoMLJgPUPEkn8-585" vertex="1"><mxGeometry width="40" height="30" as="geometry"><mxRectangle width="40" height="30" as="alternateBounds"/></mxGeometry></mxCell><mxCell id="Ks41ul4XoMLJgPUPEkn8-587" value="blueprint.Id" style="shape=partialRectangle;html=1;whiteSpace=wrap;connectable=0;fillColor=none;top=0;left=0;bottom=0;right=0;align=left;spacingLeft=6;overflow=hidden;pointerEvents=1;rounded=1;strokeColor=#DDA15E;shadow=1;sketch=1;labelBackgroundColor=none;fontColor=#FEFAE0;" parent="Ks41ul4XoMLJgPUPEkn8-585" vertex="1"><mxGeometry x="40" width="140" height="30" as="geometry"><mxRectangle width="140" height="30" as="alternateBounds"/></mxGeometry></mxCell><mxCell id="Ks41ul4XoMLJgPUPEkn8-588" value="" style="shape=partialRectangle;html=1;whiteSpace=wrap;collapsible=0;dropTarget=0;pointerEvents=1;fillColor=none;top=0;left=0;bottom=0;right=0;points=[[0,0.5],[1,0.5]];portConstraint=eastwest;rounded=1;strokeColor=#DDA15E;shadow=1;sketch=1;labelBackgroundColor=none;fontColor=#FEFAE0;" parent="Ks41ul4XoMLJgPUPEkn8-581" vertex="1"><mxGeometry y="90" width="180" height="30" as="geometry"/></mxCell><mxCell id="Ks41ul4XoMLJgPUPEkn8-589" value="2" style="shape=partialRectangle;html=1;whiteSpace=wrap;connectable=0;fillColor=none;top=0;left=0;bottom=0;right=0;overflow=hidden;pointerEvents=1;rounded=1;strokeColor=#DDA15E;shadow=1;sketch=1;labelBackgroundColor=none;fontColor=#FEFAE0;" parent="Ks41ul4XoMLJgPUPEkn8-588" vertex="1"><mxGeometry width="40" height="30" as="geometry"><mxRectangle width="40" height="30" as="alternateBounds"/></mxGeometry></mxCell><mxCell id="Ks41ul4XoMLJgPUPEkn8-590" value="material_cost" style="shape=partialRectangle;html=1;whiteSpace=wrap;connectable=0;fillColor=none;top=0;left=0;bottom=0;right=0;align=left;spacingLeft=6;overflow=hidden;pointerEvents=1;rounded=1;strokeColor=#DDA15E;shadow=1;sketch=1;labelBackgroundColor=none;fontColor=#FEFAE0;" parent="Ks41ul4XoMLJgPUPEkn8-588" vertex="1"><mxGeometry x="40" width="140" height="30" as="geometry"><mxRectangle width="140" height="30" as="alternateBounds"/></mxGeometry></mxCell><mxCell id="Ks41ul4XoMLJgPUPEkn8-591" value="" style="shape=partialRectangle;html=1;whiteSpace=wrap;collapsible=0;dropTarget=0;pointerEvents=1;fillColor=none;top=0;left=0;bottom=0;right=0;points=[[0,0.5],[1,0.5]];portConstraint=eastwest;rounded=1;strokeColor=#DDA15E;shadow=1;sketch=1;labelBackgroundColor=none;fontColor=#FEFAE0;" parent="Ks41ul4XoMLJgPUPEkn8-581" vertex="1"><mxGeometry y="120" width="180" height="30" as="geometry"/></mxCell><mxCell id="Ks41ul4XoMLJgPUPEkn8-592" value="3" style="shape=partialRectangle;html=1;whiteSpace=wrap;connectable=0;fillColor=none;top=0;left=0;bottom=0;right=0;overflow=hidden;pointerEvents=1;rounded=1;strokeColor=#DDA15E;shadow=1;sketch=1;labelBackgroundColor=none;fontColor=#FEFAE0;" parent="Ks41ul4XoMLJgPUPEkn8-591" vertex="1"><mxGeometry width="40" height="30" as="geometry"><mxRectangle width="40" height="30" as="alternateBounds"/></mxGeometry></mxCell><mxCell id="Ks41ul4XoMLJgPUPEkn8-593" value="labor_cost" style="shape=partialRectangle;html=1;whiteSpace=wrap;connectable=0;fillColor=none;top=0;left=0;bottom=0;right=0;align=left;spacingLeft=6;overflow=hidden;pointerEvents=1;rounded=1;strokeColor=#DDA15E;shadow=1;sketch=1;labelBackgroundColor=none;fontColor=#FEFAE0;" parent="Ks41ul4XoMLJgPUPEkn8-591" vertex="1"><mxGeometry x="40" width="140" height="30" as="geometry"><mxRectangle width="140" height="30" as="alternateBounds"/></mxGeometry></mxCell><mxCell id="aKM_cfSp-WrAwseliFY4-2" value="" style="edgeStyle=orthogonalEdgeStyle;fontSize=12;html=1;endArrow=ERmandOne;startArrow=ERmandOne;rounded=0;elbow=vertical;entryX=0;entryY=0.5;entryDx=0;entryDy=0;exitX=1;exitY=0.5;exitDx=0;exitDy=0;strokeColor=#DDA15E;fontColor=#FEFAE0;labelBackgroundColor=#283618;sketch=1;shadow=1;curved=1;" edge="1" parent="1" source="Ks41ul4XoMLJgPUPEkn8-449" target="Ks41ul4XoMLJgPUPEkn8-474"><mxGeometry width="100" height="100" relative="1" as="geometry"><mxPoint x="1720" y="540" as="sourcePoint"/><mxPoint x="1820" y="440" as="targetPoint"/></mxGeometry></mxCell><mxCell id="aKM_cfSp-WrAwseliFY4-4" value="" style="edgeStyle=orthogonalEdgeStyle;fontSize=12;html=1;endArrow=ERmandOne;startArrow=ERmandOne;rounded=0;elbow=vertical;entryX=0;entryY=0.5;entryDx=0;entryDy=0;exitX=1;exitY=0.5;exitDx=0;exitDy=0;strokeColor=#DDA15E;fontColor=#FEFAE0;labelBackgroundColor=#283618;sketch=1;shadow=1;curved=1;" edge="1" parent="1" source="Ks41ul4XoMLJgPUPEkn8-535" target="Ks41ul4XoMLJgPUPEkn8-585"><mxGeometry width="100" height="100" relative="1" as="geometry"><mxPoint x="1790" y="640" as="sourcePoint"/><mxPoint x="1830" y="390" as="targetPoint"/></mxGeometry></mxCell><mxCell id="aKM_cfSp-WrAwseliFY4-6" value="" style="edgeStyle=orthogonalEdgeStyle;fontSize=12;html=1;endArrow=ERoneToMany;rounded=0;elbow=vertical;exitX=1;exitY=0.5;exitDx=0;exitDy=0;entryX=0;entryY=0.5;entryDx=0;entryDy=0;strokeColor=#DDA15E;fontColor=#FEFAE0;labelBackgroundColor=#283618;sketch=1;shadow=1;curved=1;" edge="1" parent="1" source="Ks41ul4XoMLJgPUPEkn8-477" target="Ks41ul4XoMLJgPUPEkn8-500"><mxGeometry width="100" height="100" relative="1" as="geometry"><mxPoint x="1730" y="490" as="sourcePoint"/><mxPoint x="1830" y="390" as="targetPoint"/></mxGeometry></mxCell><mxCell id="aKM_cfSp-WrAwseliFY4-7" value="" style="edgeStyle=orthogonalEdgeStyle;fontSize=12;html=1;endArrow=ERoneToMany;rounded=0;elbow=vertical;exitX=0;exitY=0.5;exitDx=0;exitDy=0;strokeColor=#DDA15E;fontColor=#FEFAE0;labelBackgroundColor=#283618;sketch=1;shadow=1;entryX=0;entryY=0.5;entryDx=0;entryDy=0;curved=1;" edge="1" parent="1" source="Ks41ul4XoMLJgPUPEkn8-449" target="Ks41ul4XoMLJgPUPEkn8-565"><mxGeometry width="100" height="100" relative="1" as="geometry"><mxPoint x="1730" y="490" as="sourcePoint"/><mxPoint x="1180" y="680" as="targetPoint"/><Array as="points"><mxPoint x="1540" y="205"/><mxPoint x="1540" y="120"/><mxPoint x="1160" y="120"/><mxPoint x="1160" y="575"/></Array></mxGeometry></mxCell><mxCell id="aKM_cfSp-WrAwseliFY4-8" value="" style="edgeStyle=orthogonalEdgeStyle;fontSize=12;html=1;endArrow=ERoneToMany;rounded=0;elbow=vertical;entryX=1;entryY=0.5;entryDx=0;entryDy=0;exitX=0;exitY=0.5;exitDx=0;exitDy=0;strokeColor=#DDA15E;fontColor=#FEFAE0;labelBackgroundColor=#283618;sketch=1;shadow=1;curved=1;" edge="1" parent="1" source="Ks41ul4XoMLJgPUPEkn8-538" target="Ks41ul4XoMLJgPUPEkn8-522"><mxGeometry width="100" height="100" relative="1" as="geometry"><mxPoint x="1470" y="620" as="sourcePoint"/><mxPoint x="1830" y="390" as="targetPoint"/></mxGeometry></mxCell><mxCell id="aKM_cfSp-WrAwseliFY4-9" value="" style="edgeStyle=orthogonalEdgeStyle;fontSize=12;html=1;endArrow=ERoneToMany;rounded=0;elbow=vertical;exitX=1;exitY=0.5;exitDx=0;exitDy=0;entryX=0;entryY=0.5;entryDx=0;entryDy=0;strokeColor=#DDA15E;fontColor=#FEFAE0;labelBackgroundColor=#283618;sketch=1;shadow=1;curved=1;" edge="1" parent="1" source="Ks41ul4XoMLJgPUPEkn8-568" target="Ks41ul4XoMLJgPUPEkn8-535"><mxGeometry width="100" height="100" relative="1" as="geometry"><mxPoint x="1730" y="490" as="sourcePoint"/><mxPoint x="1420" y="740" as="targetPoint"/></mxGeometry></mxCell><mxCell id="aKM_cfSp-WrAwseliFY4-10" value="" style="edgeStyle=orthogonalEdgeStyle;fontSize=12;html=1;endArrow=ERmany;rounded=0;entryX=0;entryY=0.5;entryDx=0;entryDy=0;exitX=1;exitY=0.5;exitDx=0;exitDy=0;strokeColor=#DDA15E;fontColor=#FEFAE0;labelBackgroundColor=#283618;sketch=1;shadow=1;elbow=vertical;curved=1;" edge="1" parent="1" source="Ks41ul4XoMLJgPUPEkn8-541" target="Ks41ul4XoMLJgPUPEkn8-471"><mxGeometry width="100" height="100" relative="1" as="geometry"><mxPoint x="1730" y="490" as="sourcePoint"/><mxPoint x="1830" y="390" as="targetPoint"/></mxGeometry></mxCell><mxCell id="aKM_cfSp-WrAwseliFY4-11" value="" style="edgeStyle=orthogonalEdgeStyle;fontSize=12;html=1;endArrow=ERmandOne;startArrow=ERmandOne;rounded=0;elbow=vertical;exitX=1;exitY=0.5;exitDx=0;exitDy=0;entryX=0;entryY=0.5;entryDx=0;entryDy=0;strokeColor=#DDA15E;fontColor=#FEFAE0;labelBackgroundColor=#283618;sketch=1;shadow=1;curved=1;" edge="1" parent="1" source="Ks41ul4XoMLJgPUPEkn8-525" target="Ks41ul4XoMLJgPUPEkn8-449"><mxGeometry width="100" height="100" relative="1" as="geometry"><mxPoint x="1730" y="490" as="sourcePoint"/><mxPoint x="1830" y="390" as="targetPoint"/><Array as="points"><mxPoint x="1510" y="235"/><mxPoint x="1510" y="205"/></Array></mxGeometry></mxCell></root></mxGraphModel></diagram></mxfile>